<svg width="316" height="381" viewBox="0 0 316 381" fill="none" xmlns="http://www.w3.org/2000/svg">
<path d="M0 39C0 17.4609 17.4609 0 39 0H276.247C297.786 0 315.247 17.4609 315.247 39V342C315.247 363.539 297.786 381 276.247 381H39C17.4608 381 0 363.539 0 342V39Z" fill="#E94A4E"/>
<path d="M36.2448 83L45.7925 61.5788H50.6888L60.2671 83H55.0648L47.2308 64.0882H49.1893L41.3247 83H36.2448ZM41.0187 78.4098L42.3345 74.6458H53.3511L54.6976 78.4098H41.0187ZM74.3998 83L68.8915 75.1966L72.7779 72.9015L80.0305 83H74.3998ZM62.7406 83V66.5363H67.5144V83H62.7406ZM66.1068 76.7573V72.9321H71.8599V76.7573H66.1068ZM73.2369 75.319L68.7691 74.8294L74.5528 66.5363H79.6327L73.2369 75.319ZM82.3746 83V66.5363H87.1179V79.083H93.7584V66.5363H98.5323V83H82.3746ZM96.482 86.5498V82.9388L97.5837 83H93.7584V79.083H100.919V86.5498H96.482ZM103.921 83V66.5363H108.665V76.3288L116.682 66.5363H121.058V83H116.315V73.2075L108.328 83H103.921ZM136.021 83V77.5223L136.694 78.2873H132.135C129.768 78.2873 127.912 77.7977 126.565 76.8185C125.219 75.8392 124.546 74.4315 124.546 72.5954C124.546 70.6369 125.249 69.1375 126.657 68.097C128.085 67.0565 130.003 66.5363 132.41 66.5363H140.275V83H136.021ZM124.301 83L128.677 76.7267H133.542L129.381 83H124.301ZM136.021 76.0534V69.1987L136.694 70.4227H132.502C131.523 70.4227 130.758 70.6063 130.207 70.9736C129.676 71.3408 129.411 71.9324 129.411 72.7484C129.411 74.3193 130.421 75.1048 132.441 75.1048H136.694L136.021 76.0534Z" fill="white"/>
<path d="M45.4491 113.271C44.2284 113.271 43.0906 113.075 42.0357 112.684C40.9958 112.277 40.0916 111.704 39.323 110.966C38.5544 110.227 37.9516 109.361 37.5146 108.366C37.0926 107.371 36.8816 106.279 36.8816 105.088C36.8816 103.898 37.0926 102.805 37.5146 101.81C37.9516 100.816 38.5544 99.9491 39.323 99.2106C40.1067 98.4722 41.0184 97.9071 42.0583 97.5152C43.0981 97.1083 44.2359 96.9049 45.4717 96.9049C46.8431 96.9049 48.0789 97.146 49.179 97.6283C50.2942 98.0954 51.2286 98.7887 51.9821 99.708L49.6311 101.878C49.0886 101.26 48.4858 100.801 47.8227 100.499C47.1596 100.183 46.4362 100.024 45.6526 100.024C44.9141 100.024 44.2359 100.145 43.6181 100.386C43.0002 100.627 42.4652 100.974 42.0131 101.426C41.561 101.878 41.2068 102.413 40.9506 103.031C40.7095 103.649 40.5889 104.335 40.5889 105.088C40.5889 105.842 40.7095 106.527 40.9506 107.145C41.2068 107.763 41.561 108.298 42.0131 108.75C42.4652 109.202 43.0002 109.549 43.6181 109.79C44.2359 110.031 44.9141 110.152 45.6526 110.152C46.4362 110.152 47.1596 110.001 47.8227 109.7C48.4858 109.383 49.0886 108.908 49.6311 108.275L51.9821 110.446C51.2286 111.365 50.2942 112.066 49.179 112.548C48.0789 113.03 46.8356 113.271 45.4491 113.271ZM62.7103 113L58.6414 107.236L61.5123 105.54L66.8698 113H62.7103ZM54.0976 113V100.838H57.6241V113H54.0976ZM56.5843 108.388V105.563H60.8341V108.388H56.5843ZM61.8513 107.326L58.5509 106.964L62.8234 100.838H66.5759L61.8513 107.326ZM68.6014 113V100.838H72.1052V108.072L78.0279 100.838H81.2605V113H77.7566V105.766L71.8566 113H68.6014ZM93.0144 111.418V103.732H89.0359L88.9681 105.292C88.9379 105.94 88.9002 106.557 88.855 107.145C88.8098 107.733 88.7194 108.268 88.5838 108.75C88.4632 109.217 88.2824 109.617 88.0412 109.948C87.8001 110.265 87.4761 110.483 87.0692 110.604L83.5879 110.106C84.025 110.106 84.3791 109.978 84.6504 109.722C84.9217 109.451 85.1327 109.082 85.2834 108.615C85.4341 108.132 85.5471 107.59 85.6224 106.987C85.6978 106.369 85.7505 105.721 85.7807 105.043L85.9389 100.838H96.5409V111.418H93.0144ZM83.181 115.622V110.106H98.2815V115.622H95.0037V113H86.4588V115.622H83.181ZM109.113 113L105.044 107.236L107.915 105.54L113.273 113H109.113ZM100.501 113V100.838H104.027V113H100.501ZM102.987 108.388V105.563H107.237V108.388H102.987ZM108.254 107.326L104.954 106.964L109.226 100.838H112.979L108.254 107.326ZM122.063 113V110.626L121.837 110.106V105.857C121.837 105.103 121.603 104.515 121.136 104.093C120.684 103.671 119.983 103.46 119.034 103.46C118.386 103.46 117.745 103.566 117.112 103.777C116.494 103.973 115.967 104.244 115.53 104.591L114.264 102.127C114.927 101.66 115.726 101.298 116.66 101.042C117.594 100.785 118.544 100.657 119.508 100.657C121.362 100.657 122.801 101.094 123.826 101.969C124.851 102.843 125.363 104.206 125.363 106.06V113H122.063ZM118.355 113.181C117.406 113.181 116.592 113.023 115.914 112.706C115.236 112.375 114.716 111.93 114.354 111.372C113.993 110.815 113.812 110.189 113.812 109.496C113.812 108.773 113.985 108.14 114.332 107.597C114.693 107.055 115.258 106.633 116.027 106.331C116.796 106.015 117.798 105.857 119.034 105.857H122.266V107.914H119.418C118.589 107.914 118.016 108.049 117.7 108.321C117.398 108.592 117.248 108.931 117.248 109.338C117.248 109.79 117.421 110.152 117.768 110.423C118.129 110.679 118.619 110.807 119.237 110.807C119.825 110.807 120.352 110.672 120.819 110.4C121.287 110.114 121.626 109.7 121.837 109.157L122.379 110.785C122.123 111.568 121.656 112.164 120.978 112.57C120.299 112.977 119.425 113.181 118.355 113.181ZM136.456 113V98.5325L138.038 100.115H133.291V97.1761H140.118V113H136.456ZM149.649 113.271C148.353 113.271 147.192 112.955 146.167 112.322C145.143 111.674 144.336 110.739 143.749 109.519C143.161 108.298 142.867 106.821 142.867 105.088C142.867 103.355 143.161 101.878 143.749 100.657C144.336 99.4367 145.143 98.5099 146.167 97.8769C147.192 97.2289 148.353 96.9049 149.649 96.9049C150.96 96.9049 152.12 97.2289 153.13 97.8769C154.155 98.5099 154.961 99.4367 155.549 100.657C156.136 101.878 156.43 103.355 156.43 105.088C156.43 106.821 156.136 108.298 155.549 109.519C154.961 110.739 154.155 111.674 153.13 112.322C152.12 112.955 150.96 113.271 149.649 113.271ZM149.649 110.174C150.267 110.174 150.802 110.001 151.254 109.654C151.721 109.308 152.083 108.758 152.339 108.004C152.61 107.251 152.746 106.279 152.746 105.088C152.746 103.898 152.61 102.925 152.339 102.172C152.083 101.418 151.721 100.868 151.254 100.522C150.802 100.175 150.267 100.002 149.649 100.002C149.046 100.002 148.511 100.175 148.044 100.522C147.592 100.868 147.23 101.418 146.959 102.172C146.702 102.925 146.574 103.898 146.574 105.088C146.574 106.279 146.702 107.251 146.959 108.004C147.23 108.758 147.592 109.308 148.044 109.654C148.511 110.001 149.046 110.174 149.649 110.174ZM164.991 113.271C163.695 113.271 162.535 112.955 161.51 112.322C160.485 111.674 159.679 110.739 159.091 109.519C158.503 108.298 158.21 106.821 158.21 105.088C158.21 103.355 158.503 101.878 159.091 100.657C159.679 99.4367 160.485 98.5099 161.51 97.8769C162.535 97.2289 163.695 96.9049 164.991 96.9049C166.302 96.9049 167.463 97.2289 168.473 97.8769C169.497 98.5099 170.304 99.4367 170.891 100.657C171.479 101.878 171.773 103.355 171.773 105.088C171.773 106.821 171.479 108.298 170.891 109.519C170.304 110.739 169.497 111.674 168.473 112.322C167.463 112.955 166.302 113.271 164.991 113.271ZM164.991 110.174C165.609 110.174 166.144 110.001 166.596 109.654C167.063 109.308 167.425 108.758 167.681 108.004C167.953 107.251 168.088 106.279 168.088 105.088C168.088 103.898 167.953 102.925 167.681 102.172C167.425 101.418 167.063 100.868 166.596 100.522C166.144 100.175 165.609 100.002 164.991 100.002C164.388 100.002 163.853 100.175 163.386 100.522C162.934 100.868 162.572 101.418 162.301 102.172C162.045 102.925 161.917 103.898 161.917 105.088C161.917 106.279 162.045 107.251 162.301 108.004C162.572 108.758 162.934 109.308 163.386 109.654C163.853 110.001 164.388 110.174 164.991 110.174ZM180.334 113.271C179.038 113.271 177.877 112.955 176.853 112.322C175.828 111.674 175.022 110.739 174.434 109.519C173.846 108.298 173.552 106.821 173.552 105.088C173.552 103.355 173.846 101.878 174.434 100.657C175.022 99.4367 175.828 98.5099 176.853 97.8769C177.877 97.2289 179.038 96.9049 180.334 96.9049C181.645 96.9049 182.805 97.2289 183.815 97.8769C184.84 98.5099 185.646 99.4367 186.234 100.657C186.822 101.878 187.116 103.355 187.116 105.088C187.116 106.821 186.822 108.298 186.234 109.519C185.646 110.739 184.84 111.674 183.815 112.322C182.805 112.955 181.645 113.271 180.334 113.271ZM180.334 110.174C180.952 110.174 181.487 110.001 181.939 109.654C182.406 109.308 182.768 108.758 183.024 108.004C183.295 107.251 183.431 106.279 183.431 105.088C183.431 103.898 183.295 102.925 183.024 102.172C182.768 101.418 182.406 100.868 181.939 100.522C181.487 100.175 180.952 100.002 180.334 100.002C179.731 100.002 179.196 100.175 178.729 100.522C178.277 100.868 177.915 101.418 177.644 102.172C177.388 102.925 177.26 103.898 177.26 105.088C177.26 106.279 177.388 107.251 177.644 108.004C177.915 108.758 178.277 109.308 178.729 109.654C179.196 110.001 179.731 110.174 180.334 110.174ZM194.478 113V102.285H189.437V100.386H203.204V102.285H198.14V113H194.478ZM189.437 99.075V97.1761H203.204V99.075H189.437ZM37.6954 141V128.838H41.1993V133.585H46.489V128.838H50.0154V141H46.489V136.456H41.1993V141H37.6954ZM60.6702 141V138.626L60.4441 138.106V133.857C60.4441 133.103 60.2106 132.515 59.7434 132.093C59.2913 131.671 58.5905 131.46 57.6411 131.46C56.993 131.46 56.3525 131.566 55.7196 131.777C55.1017 131.973 54.5742 132.244 54.1372 132.591L52.8713 130.127C53.5344 129.66 54.3331 129.298 55.2675 129.042C56.2018 128.785 57.1513 128.657 58.1158 128.657C59.9694 128.657 61.4086 129.094 62.4334 129.969C63.4582 130.843 63.9706 132.206 63.9706 134.06V141H60.6702ZM56.9629 141.181C56.0135 141.181 55.1997 141.023 54.5215 140.706C53.8433 140.375 53.3234 139.93 52.9617 139.372C52.6 138.815 52.4192 138.189 52.4192 137.496C52.4192 136.773 52.5925 136.14 52.9391 135.597C53.3008 135.055 53.8659 134.633 54.6345 134.331C55.4031 134.015 56.4053 133.857 57.6411 133.857H60.8736V135.914H58.0254C57.1965 135.914 56.6238 136.049 56.3073 136.321C56.0059 136.592 55.8552 136.931 55.8552 137.338C55.8552 137.79 56.0285 138.152 56.3752 138.423C56.7368 138.679 57.2266 138.807 57.8445 138.807C58.4323 138.807 58.9597 138.672 59.4269 138.4C59.8941 138.114 60.2332 137.7 60.4441 137.157L60.9867 138.785C60.7305 139.568 60.2633 140.164 59.5851 140.57C58.907 140.977 58.0329 141.181 56.9629 141.181ZM73.436 141V128.838H85.5299V141H82.0034V130.941L82.7946 131.732H76.1486L76.9398 130.941V141H73.436ZM94.8563 141.181C93.4698 141.181 92.2491 140.91 91.1942 140.367C90.1543 139.825 89.3481 139.086 88.7754 138.152C88.2027 137.202 87.9164 136.125 87.9164 134.919C87.9164 133.698 88.1952 132.621 88.7528 131.687C89.3254 130.737 90.1016 129.999 91.0811 129.471C92.0607 128.929 93.1684 128.657 94.4042 128.657C95.5947 128.657 96.6647 128.914 97.6141 129.426C98.5786 129.923 99.3397 130.647 99.8973 131.596C100.455 132.53 100.734 133.653 100.734 134.964C100.734 135.1 100.726 135.258 100.711 135.439C100.696 135.605 100.681 135.763 100.666 135.914H90.7873V133.857H98.8122L97.4559 134.467C97.4559 133.834 97.3278 133.284 97.0716 132.817C96.8154 132.35 96.4613 131.988 96.0091 131.732C95.557 131.46 95.0296 131.325 94.4268 131.325C93.8239 131.325 93.2889 131.46 92.8218 131.732C92.3697 131.988 92.0155 132.357 91.7593 132.839C91.5031 133.307 91.375 133.864 91.375 134.512V135.055C91.375 135.718 91.5182 136.306 91.8045 136.818C92.1059 137.315 92.5204 137.7 93.0478 137.971C93.5904 138.227 94.2233 138.355 94.9467 138.355C95.5947 138.355 96.1598 138.257 96.6421 138.061C97.1394 137.865 97.5915 137.571 97.9984 137.18L99.8747 139.214C99.3171 139.847 98.6163 140.337 97.7724 140.684C96.9284 141.015 95.9564 141.181 94.8563 141.181ZM110.603 141.181C109.578 141.181 108.681 140.955 107.913 140.503C107.144 140.051 106.541 139.365 106.104 138.446C105.682 137.511 105.471 136.336 105.471 134.919C105.471 133.487 105.675 132.312 106.082 131.393C106.489 130.473 107.076 129.788 107.845 129.336C108.613 128.883 109.533 128.657 110.603 128.657C111.748 128.657 112.773 128.921 113.677 129.449C114.596 129.961 115.32 130.684 115.847 131.619C116.39 132.553 116.661 133.653 116.661 134.919C116.661 136.2 116.39 137.308 115.847 138.242C115.32 139.176 114.596 139.9 113.677 140.412C112.773 140.925 111.748 141.181 110.603 141.181ZM103.414 145.385V128.838H106.782V131.325L106.715 134.942L106.941 138.536V145.385H103.414ZM109.992 138.287C110.58 138.287 111.1 138.152 111.552 137.88C112.019 137.609 112.389 137.225 112.66 136.728C112.946 136.215 113.089 135.612 113.089 134.919C113.089 134.211 112.946 133.608 112.66 133.111C112.389 132.613 112.019 132.229 111.552 131.958C111.1 131.687 110.58 131.551 109.992 131.551C109.405 131.551 108.877 131.687 108.41 131.958C107.943 132.229 107.574 132.613 107.302 133.111C107.031 133.608 106.895 134.211 106.895 134.919C106.895 135.612 107.031 136.215 107.302 136.728C107.574 137.225 107.943 137.609 108.41 137.88C108.877 138.152 109.405 138.287 109.992 138.287ZM119.133 141V128.838H125.349C126.871 128.838 128.062 129.117 128.921 129.675C129.78 130.217 130.209 130.986 130.209 131.98C130.209 132.975 129.802 133.759 128.989 134.331C128.19 134.889 127.127 135.168 125.801 135.168L126.163 134.354C127.64 134.354 128.74 134.625 129.463 135.168C130.202 135.71 130.571 136.502 130.571 137.541C130.571 138.611 130.164 139.455 129.35 140.073C128.537 140.691 127.293 141 125.62 141H119.133ZM122.365 138.604H125.327C125.975 138.604 126.457 138.498 126.773 138.287C127.105 138.061 127.271 137.722 127.271 137.27C127.271 136.803 127.12 136.464 126.818 136.253C126.517 136.027 126.042 135.914 125.394 135.914H122.365V138.604ZM122.365 133.834H125.033C125.651 133.834 126.11 133.721 126.412 133.495C126.728 133.269 126.886 132.945 126.886 132.523C126.886 132.086 126.728 131.762 126.412 131.551C126.11 131.34 125.651 131.234 125.033 131.234H122.365V133.834ZM145.718 141V128.838H149.222V141H145.718ZM139.592 132.726C141.19 132.741 142.388 133.103 143.186 133.811C144 134.505 144.407 135.492 144.407 136.773C144.407 138.114 143.948 139.161 143.028 139.915C142.109 140.653 140.805 141.023 139.117 141.023L133.195 141V128.838H136.699V132.726H139.592ZM138.801 138.513C139.479 138.528 139.999 138.385 140.361 138.084C140.722 137.782 140.903 137.33 140.903 136.728C140.903 136.125 140.722 135.695 140.361 135.439C139.999 135.168 139.479 135.025 138.801 135.01L136.699 134.987V138.513H138.801ZM152.621 141V128.838H156.125V136.072L162.048 128.838H165.281V141H161.777V133.766L155.877 141H152.621ZM158.725 127.527C157.399 127.527 156.404 127.241 155.741 126.668C155.078 126.08 154.739 125.199 154.724 124.023H157.03C157.045 124.536 157.188 124.943 157.459 125.244C157.73 125.545 158.145 125.696 158.702 125.696C159.245 125.696 159.659 125.545 159.946 125.244C160.247 124.943 160.398 124.536 160.398 124.023H162.749C162.749 125.199 162.41 126.08 161.731 126.668C161.053 127.241 160.051 127.527 158.725 127.527ZM41.8096 169.226C40.8753 169.226 39.9409 169.128 39.0065 168.932C38.0872 168.736 37.2358 168.442 36.4521 168.051L37.4015 165.587C38.0194 165.888 38.6901 166.122 39.4134 166.287C40.1519 166.438 40.8979 166.513 41.6514 166.513C42.1939 166.513 42.6611 166.461 43.0529 166.355C43.4598 166.235 43.7688 166.069 43.9797 165.858C44.1907 165.647 44.2962 165.391 44.2962 165.089C44.2962 164.697 44.1304 164.404 43.7989 164.208C43.4674 163.997 42.9851 163.891 42.3521 163.891H39.8655V161.698H42.0583C42.4652 161.698 42.8118 161.653 43.0981 161.563C43.3845 161.472 43.5954 161.344 43.7311 161.178C43.8818 160.998 43.9571 160.787 43.9571 160.546C43.9571 160.289 43.8667 160.071 43.6859 159.89C43.505 159.709 43.2413 159.574 42.8947 159.483C42.5481 159.378 42.111 159.325 41.5836 159.325C40.9807 159.325 40.3553 159.4 39.7073 159.551C39.0593 159.687 38.3962 159.89 37.718 160.161L36.859 157.72C37.6577 157.388 38.4489 157.125 39.2326 156.929C40.0162 156.733 40.7924 156.627 41.561 156.612C42.6912 156.582 43.7085 156.703 44.6127 156.974C45.5169 157.245 46.2252 157.637 46.7376 158.149C47.2651 158.662 47.5288 159.287 47.5288 160.026C47.5288 160.613 47.348 161.141 46.9863 161.608C46.6397 162.075 46.1574 162.444 45.5395 162.716C44.9216 162.972 44.2284 163.1 43.4598 163.1L43.5502 162.399C44.8915 162.399 45.9464 162.67 46.715 163.213C47.4836 163.74 47.8679 164.464 47.8679 165.383C47.8679 166.167 47.5966 166.852 47.0541 167.44C46.5266 168.013 45.8033 168.457 44.884 168.774C43.9797 169.075 42.955 169.226 41.8096 169.226ZM57.6679 169V166.626L57.4419 166.106V161.857C57.4419 161.103 57.2083 160.515 56.7411 160.093C56.289 159.671 55.5882 159.46 54.6388 159.46C53.9907 159.46 53.3503 159.566 52.7173 159.777C52.0994 159.973 51.572 160.244 51.1349 160.591L49.869 158.127C50.5321 157.66 51.3308 157.298 52.2652 157.042C53.1996 156.785 54.149 156.657 55.1135 156.657C56.9671 156.657 58.4064 157.094 59.4311 157.969C60.4559 158.843 60.9683 160.206 60.9683 162.06V169H57.6679ZM53.9606 169.181C53.0112 169.181 52.1974 169.023 51.5192 168.706C50.841 168.375 50.3211 167.93 49.9594 167.372C49.5977 166.815 49.4169 166.189 49.4169 165.496C49.4169 164.773 49.5902 164.14 49.9368 163.597C50.2985 163.055 50.8636 162.633 51.6322 162.331C52.4008 162.015 53.403 161.857 54.6388 161.857H57.8714V163.914H55.0231C54.1942 163.914 53.6215 164.049 53.305 164.321C53.0036 164.592 52.8529 164.931 52.8529 165.338C52.8529 165.79 53.0262 166.152 53.3729 166.423C53.7345 166.679 54.2243 166.807 54.8422 166.807C55.43 166.807 55.9574 166.672 56.4246 166.4C56.8918 166.114 57.2309 165.7 57.4419 165.157L57.9844 166.785C57.7282 167.568 57.261 168.164 56.5828 168.57C55.9047 168.977 55.0306 169.181 53.9606 169.181ZM72.6444 169L68.5754 163.236L71.4463 161.54L76.8038 169H72.6444ZM64.0317 169V156.838H67.5582V169H64.0317ZM66.5183 164.388V161.563H70.7682V164.388H66.5183ZM71.7854 163.326L68.485 162.964L72.7574 156.838H76.5099L71.7854 163.326ZM85.5937 169V166.626L85.3676 166.106V161.857C85.3676 161.103 85.134 160.515 84.6668 160.093C84.2147 159.671 83.5139 159.46 82.5645 159.46C81.9165 159.46 81.276 159.566 80.643 159.777C80.0252 159.973 79.4977 160.244 79.0607 160.591L77.7948 158.127C78.4578 157.66 79.2566 157.298 80.1909 157.042C81.1253 156.785 82.0747 156.657 83.0392 156.657C84.8929 156.657 86.3321 157.094 87.3569 157.969C88.3817 158.843 88.8941 160.206 88.8941 162.06V169H85.5937ZM81.8863 169.181C80.9369 169.181 80.1231 169.023 79.445 168.706C78.7668 168.375 78.2469 167.93 77.8852 167.372C77.5235 166.815 77.3426 166.189 77.3426 165.496C77.3426 164.773 77.516 164.14 77.8626 163.597C78.2243 163.055 78.7894 162.633 79.558 162.331C80.3266 162.015 81.3287 161.857 82.5645 161.857H85.7971V163.914H82.9488C82.1199 163.914 81.5473 164.049 81.2308 164.321C80.9294 164.592 80.7787 164.931 80.7787 165.338C80.7787 165.79 80.952 166.152 81.2986 166.423C81.6603 166.679 82.1501 166.807 82.768 166.807C83.3557 166.807 83.8832 166.672 84.3503 166.4C84.8175 166.114 85.1566 165.7 85.3676 165.157L85.9101 166.785C85.6539 167.568 85.1868 168.164 84.5086 168.57C83.8304 168.977 82.9563 169.181 81.8863 169.181ZM95.9613 169.226C95.0269 169.226 94.0926 169.128 93.1582 168.932C92.2389 168.736 91.3874 168.442 90.6038 168.051L91.5532 165.587C92.1711 165.888 92.8417 166.122 93.5651 166.287C94.3035 166.438 95.0495 166.513 95.803 166.513C96.3456 166.513 96.8128 166.461 97.2046 166.355C97.6115 166.235 97.9204 166.069 98.1314 165.858C98.3424 165.647 98.4479 165.391 98.4479 165.089C98.4479 164.697 98.2821 164.404 97.9506 164.208C97.619 163.997 97.1368 163.891 96.5038 163.891H94.0172V161.698H96.2099C96.6168 161.698 96.9635 161.653 97.2498 161.563C97.5361 161.472 97.7471 161.344 97.8827 161.178C98.0335 160.998 98.1088 160.787 98.1088 160.546C98.1088 160.289 98.0184 160.071 97.8375 159.89C97.6567 159.709 97.393 159.574 97.0463 159.483C96.6997 159.378 96.2627 159.325 95.7352 159.325C95.1324 159.325 94.507 159.4 93.859 159.551C93.2109 159.687 92.5478 159.89 91.8697 160.161L91.0107 157.72C91.8094 157.388 92.6006 157.125 93.3843 156.929C94.1679 156.733 94.944 156.627 95.7126 156.612C96.8429 156.582 97.8601 156.703 98.7644 156.974C99.6686 157.245 100.377 157.637 100.889 158.149C101.417 158.662 101.68 159.287 101.68 160.026C101.68 160.613 101.5 161.141 101.138 161.608C100.791 162.075 100.309 162.444 99.6912 162.716C99.0733 162.972 98.3801 163.1 97.6115 163.1L97.7019 162.399C99.0432 162.399 100.098 162.67 100.867 163.213C101.635 163.74 102.02 164.464 102.02 165.383C102.02 166.167 101.748 166.852 101.206 167.44C100.678 168.013 99.9549 168.457 99.0356 168.774C98.1314 169.075 97.1066 169.226 95.9613 169.226ZM118.606 164.343C118.108 164.615 117.558 164.833 116.956 164.999C116.353 165.165 115.69 165.247 114.966 165.247C113.369 165.247 112.141 164.886 111.282 164.162C110.423 163.424 109.993 162.256 109.993 160.659V156.838H113.52V160.433C113.52 161.186 113.715 161.729 114.107 162.06C114.499 162.377 115.049 162.535 115.758 162.535C116.27 162.535 116.76 162.475 117.227 162.354C117.709 162.233 118.169 162.06 118.606 161.834V164.343ZM118.357 169V156.838H121.884V169H118.357ZM131.215 169.181C129.828 169.181 128.608 168.91 127.553 168.367C126.513 167.825 125.707 167.086 125.134 166.152C124.561 165.202 124.275 164.125 124.275 162.919C124.275 161.698 124.554 160.621 125.111 159.687C125.684 158.737 126.46 157.999 127.44 157.471C128.419 156.929 129.527 156.657 130.763 156.657C131.953 156.657 133.023 156.914 133.973 157.426C134.937 157.923 135.698 158.647 136.256 159.596C136.814 160.53 137.092 161.653 137.092 162.964C137.092 163.1 137.085 163.258 137.07 163.439C137.055 163.605 137.04 163.763 137.025 163.914H127.146V161.857H135.171L133.815 162.467C133.815 161.834 133.686 161.284 133.43 160.817C133.174 160.35 132.82 159.988 132.368 159.732C131.916 159.46 131.388 159.325 130.785 159.325C130.183 159.325 129.648 159.46 129.18 159.732C128.728 159.988 128.374 160.357 128.118 160.839C127.862 161.307 127.734 161.864 127.734 162.512V163.055C127.734 163.718 127.877 164.306 128.163 164.818C128.465 165.315 128.879 165.7 129.406 165.971C129.949 166.227 130.582 166.355 131.305 166.355C131.953 166.355 132.519 166.257 133.001 166.061C133.498 165.865 133.95 165.571 134.357 165.18L136.233 167.214C135.676 167.847 134.975 168.337 134.131 168.684C133.287 169.015 132.315 169.181 131.215 169.181ZM146.961 169.181C145.937 169.181 145.04 168.955 144.271 168.503C143.503 168.051 142.9 167.365 142.463 166.446C142.041 165.511 141.83 164.336 141.83 162.919C141.83 161.487 142.033 160.312 142.44 159.393C142.847 158.473 143.435 157.788 144.204 157.336C144.972 156.883 145.891 156.657 146.961 156.657C148.107 156.657 149.132 156.921 150.036 157.449C150.955 157.961 151.678 158.684 152.206 159.619C152.748 160.553 153.02 161.653 153.02 162.919C153.02 164.2 152.748 165.308 152.206 166.242C151.678 167.176 150.955 167.9 150.036 168.412C149.132 168.925 148.107 169.181 146.961 169.181ZM139.773 173.385V156.838H143.141V159.325L143.073 162.942L143.299 166.536V173.385H139.773ZM146.351 166.287C146.939 166.287 147.459 166.152 147.911 165.88C148.378 165.609 148.747 165.225 149.019 164.728C149.305 164.215 149.448 163.612 149.448 162.919C149.448 162.211 149.305 161.608 149.019 161.111C148.747 160.613 148.378 160.229 147.911 159.958C147.459 159.687 146.939 159.551 146.351 159.551C145.763 159.551 145.236 159.687 144.769 159.958C144.302 160.229 143.932 160.613 143.661 161.111C143.39 161.608 143.254 162.211 143.254 162.919C143.254 163.612 143.39 164.215 143.661 164.728C143.932 165.225 144.302 165.609 144.769 165.88C145.236 166.152 145.763 166.287 146.351 166.287ZM161.437 169.181C160.05 169.181 158.829 168.91 157.774 168.367C156.735 167.825 155.928 167.086 155.356 166.152C154.783 165.202 154.497 164.125 154.497 162.919C154.497 161.698 154.775 160.621 155.333 159.687C155.906 158.737 156.682 157.999 157.661 157.471C158.641 156.929 159.749 156.657 160.984 156.657C162.175 156.657 163.245 156.914 164.194 157.426C165.159 157.923 165.92 158.647 166.478 159.596C167.035 160.53 167.314 161.653 167.314 162.964C167.314 163.1 167.306 163.258 167.291 163.439C167.276 163.605 167.261 163.763 167.246 163.914H157.368V161.857H165.392L164.036 162.467C164.036 161.834 163.908 161.284 163.652 160.817C163.396 160.35 163.042 159.988 162.589 159.732C162.137 159.46 161.61 159.325 161.007 159.325C160.404 159.325 159.869 159.46 159.402 159.732C158.95 159.988 158.596 160.357 158.34 160.839C158.083 161.307 157.955 161.864 157.955 162.512V163.055C157.955 163.718 158.098 164.306 158.385 164.818C158.686 165.315 159.101 165.7 159.628 165.971C160.171 166.227 160.804 166.355 161.527 166.355C162.175 166.355 162.74 166.257 163.222 166.061C163.72 165.865 164.172 165.571 164.579 165.18L166.455 167.214C165.897 167.847 165.197 168.337 164.353 168.684C163.509 169.015 162.537 169.181 161.437 169.181ZM173.999 169.226C173.064 169.226 172.13 169.128 171.196 168.932C170.276 168.736 169.425 168.442 168.641 168.051L169.591 165.587C170.209 165.888 170.879 166.122 171.603 166.287C172.341 166.438 173.087 166.513 173.841 166.513C174.383 166.513 174.85 166.461 175.242 166.355C175.649 166.235 175.958 166.069 176.169 165.858C176.38 165.647 176.485 165.391 176.485 165.089C176.485 164.697 176.32 164.404 175.988 164.208C175.657 163.997 175.174 163.891 174.541 163.891H172.055V161.698H174.247C174.654 161.698 175.001 161.653 175.287 161.563C175.574 161.472 175.785 161.344 175.92 161.178C176.071 160.998 176.146 160.787 176.146 160.546C176.146 160.289 176.056 160.071 175.875 159.89C175.694 159.709 175.431 159.574 175.084 159.483C174.737 159.378 174.3 159.325 173.773 159.325C173.17 159.325 172.545 159.4 171.897 159.551C171.249 159.687 170.585 159.89 169.907 160.161L169.048 157.72C169.847 157.388 170.638 157.125 171.422 156.929C172.205 156.733 172.982 156.627 173.75 156.612C174.88 156.582 175.898 156.703 176.802 156.974C177.706 157.245 178.414 157.637 178.927 158.149C179.454 158.662 179.718 159.287 179.718 160.026C179.718 160.613 179.537 161.141 179.176 161.608C178.829 162.075 178.347 162.444 177.729 162.716C177.111 162.972 176.418 163.1 175.649 163.1L175.739 162.399C177.081 162.399 178.136 162.67 178.904 163.213C179.673 163.74 180.057 164.464 180.057 165.383C180.057 166.167 179.786 166.852 179.243 167.44C178.716 168.013 177.992 168.457 177.073 168.774C176.169 169.075 175.144 169.226 173.999 169.226ZM43.4824 197.181C42.1713 197.181 41.0034 196.917 39.9786 196.39C38.9538 195.847 38.1475 195.101 37.5598 194.152C36.9871 193.202 36.7008 192.125 36.7008 190.919C36.7008 189.698 36.9871 188.621 37.5598 187.687C38.1475 186.737 38.9538 185.999 39.9786 185.471C41.0034 184.929 42.1713 184.657 43.4824 184.657C44.7634 184.657 45.8786 184.929 46.828 185.471C47.7775 185.999 48.4782 186.76 48.9303 187.754L46.1951 189.224C45.8786 188.651 45.4792 188.229 44.997 187.958C44.5298 187.687 44.0174 187.551 43.4598 187.551C42.857 187.551 42.3145 187.687 41.8322 187.958C41.35 188.229 40.9657 188.613 40.6793 189.111C40.4081 189.608 40.2724 190.211 40.2724 190.919C40.2724 191.627 40.4081 192.23 40.6793 192.728C40.9657 193.225 41.35 193.609 41.8322 193.88C42.3145 194.152 42.857 194.287 43.4598 194.287C44.0174 194.287 44.5298 194.159 44.997 193.903C45.4792 193.632 45.8786 193.202 46.1951 192.615L48.9303 194.106C48.4782 195.086 47.7775 195.847 46.828 196.39C45.8786 196.917 44.7634 197.181 43.4824 197.181ZM58.3523 197V194.626L58.1262 194.106V189.857C58.1262 189.103 57.8926 188.515 57.4254 188.093C56.9733 187.671 56.2725 187.46 55.3231 187.46C54.6751 187.46 54.0346 187.566 53.4016 187.777C52.7838 187.973 52.2563 188.244 51.8193 188.591L50.5534 186.127C51.2164 185.66 52.0152 185.298 52.9495 185.042C53.8839 184.785 54.8333 184.657 55.7978 184.657C57.6515 184.657 59.0907 185.094 60.1155 185.969C61.1403 186.843 61.6527 188.206 61.6527 190.06V197H58.3523ZM54.6449 197.181C53.6955 197.181 52.8817 197.023 52.2036 196.706C51.5254 196.375 51.0055 195.93 50.6438 195.372C50.2821 194.815 50.1012 194.189 50.1012 193.496C50.1012 192.773 50.2746 192.14 50.6212 191.597C50.9829 191.055 51.548 190.633 52.3166 190.331C53.0852 190.015 54.0873 189.857 55.3231 189.857H58.5557V191.914H55.7074C54.8785 191.914 54.3059 192.049 53.9894 192.321C53.688 192.592 53.5373 192.931 53.5373 193.338C53.5373 193.79 53.7106 194.152 54.0572 194.423C54.4189 194.679 54.9087 194.807 55.5266 194.807C56.1143 194.807 56.6418 194.672 57.1089 194.4C57.5761 194.114 57.9152 193.7 58.1262 193.157L58.6687 194.785C58.4125 195.568 57.9454 196.164 57.2672 196.57C56.589 196.977 55.7149 197.181 54.6449 197.181ZM64.7161 197V184.838H68.2199V192.072L74.1426 184.838H77.3751V197H73.8713V189.766L67.9712 197H64.7161ZM70.8195 183.527C69.4934 183.527 68.4987 183.241 67.8356 182.668C67.1725 182.08 66.8334 181.199 66.8184 180.023H69.1241C69.1392 180.536 69.2824 180.943 69.5536 181.244C69.8249 181.545 70.2393 181.696 70.7969 181.696C71.3395 181.696 71.7539 181.545 72.0402 181.244C72.3416 180.943 72.4923 180.536 72.4923 180.023H74.8433C74.8433 181.199 74.5042 182.08 73.8261 182.668C73.1479 183.241 72.1457 183.527 70.8195 183.527ZM83.3647 197V186.918L84.1559 187.732H79.2505V184.838H90.9828V187.732H86.0774L86.8686 186.918V197H83.3647ZM99.2645 197V184.838H102.768V192.072L108.691 184.838H111.924V197H108.42V189.766L102.52 197H99.2645ZM37.6954 225V212.838H49.7894V225H46.2629V214.941L47.0541 215.732H40.4081L41.1993 214.941V225H37.6954ZM60.3364 225.181C59.3116 225.181 58.4149 224.955 57.6464 224.503C56.8778 224.051 56.275 223.365 55.8379 222.446C55.416 221.511 55.205 220.336 55.205 218.919C55.205 217.487 55.4084 216.312 55.8153 215.393C56.2222 214.473 56.81 213.788 57.5785 213.336C58.3471 212.883 59.2664 212.657 60.3364 212.657C61.4818 212.657 62.5065 212.921 63.4108 213.449C64.3301 213.961 65.0534 214.684 65.5809 215.619C66.1234 216.553 66.3947 217.653 66.3947 218.919C66.3947 220.2 66.1234 221.308 65.5809 222.242C65.0534 223.176 64.3301 223.9 63.4108 224.412C62.5065 224.925 61.4818 225.181 60.3364 225.181ZM53.1479 229.385V212.838H56.5161V215.325L56.4483 218.942L56.6743 222.536V229.385H53.1479ZM59.7261 222.287C60.3138 222.287 60.8337 222.152 61.2858 221.88C61.753 221.609 62.1223 221.225 62.3935 220.728C62.6799 220.215 62.823 219.612 62.823 218.919C62.823 218.211 62.6799 217.608 62.3935 217.111C62.1223 216.613 61.753 216.229 61.2858 215.958C60.8337 215.687 60.3138 215.551 59.7261 215.551C59.1383 215.551 58.6109 215.687 58.1437 215.958C57.6765 216.229 57.3073 216.613 57.036 217.111C56.7647 217.608 56.6291 218.211 56.6291 218.919C56.6291 219.612 56.7647 220.215 57.036 220.728C57.3073 221.225 57.6765 221.609 58.1437 221.88C58.6109 222.152 59.1383 222.287 59.7261 222.287ZM68.8663 225V212.838H72.3701V220.072L78.2928 212.838H81.5254V225H78.0215V217.766L72.1215 225H68.8663ZM83.3781 224.977L83.559 222.084C83.6494 222.099 83.7398 222.114 83.8302 222.129C83.9207 222.129 84.0036 222.129 84.0789 222.129C84.5009 222.129 84.8324 222.009 85.0735 221.767C85.3147 221.526 85.4955 221.202 85.6161 220.795C85.7366 220.373 85.8195 219.899 85.8647 219.371C85.925 218.844 85.9702 218.294 86.0004 217.721L86.1812 212.838H96.5797V225H93.0533V214.873L93.8445 215.732H88.5096L89.2556 214.828L89.0973 217.879C89.0521 218.964 88.9617 219.959 88.8261 220.863C88.7055 221.767 88.502 222.551 88.2157 223.214C87.9294 223.862 87.5451 224.367 87.0628 224.729C86.5806 225.075 85.9627 225.249 85.2092 225.249C84.9379 225.249 84.6516 225.226 84.3502 225.181C84.0488 225.136 83.7248 225.068 83.3781 224.977ZM105.668 225.181C104.371 225.181 103.219 224.91 102.209 224.367C101.214 223.825 100.423 223.086 99.8353 222.152C99.2626 221.202 98.9763 220.125 98.9763 218.919C98.9763 217.698 99.2626 216.621 99.8353 215.687C100.423 214.737 101.214 213.999 102.209 213.471C103.219 212.929 104.371 212.657 105.668 212.657C106.948 212.657 108.094 212.929 109.104 213.471C110.113 213.999 110.904 214.73 111.477 215.664C112.05 216.598 112.336 217.683 112.336 218.919C112.336 220.125 112.05 221.202 111.477 222.152C110.904 223.086 110.113 223.825 109.104 224.367C108.094 224.91 106.948 225.181 105.668 225.181ZM105.668 222.287C106.255 222.287 106.783 222.152 107.25 221.88C107.717 221.609 108.086 221.225 108.358 220.728C108.629 220.215 108.764 219.612 108.764 218.919C108.764 218.211 108.629 217.608 108.358 217.111C108.086 216.613 107.717 216.229 107.25 215.958C106.783 215.687 106.255 215.551 105.668 215.551C105.08 215.551 104.552 215.687 104.085 215.958C103.618 216.229 103.241 216.613 102.955 217.111C102.684 217.608 102.548 218.211 102.548 218.919C102.548 219.612 102.684 220.215 102.955 220.728C103.241 221.225 103.618 221.609 104.085 221.88C104.552 222.152 105.08 222.287 105.668 222.287ZM129.012 225L125.78 219.236L128.628 217.54L133.194 225H129.012ZM123.7 220.388V217.563H127.927V220.388H123.7ZM128.99 219.326L125.667 218.964L129.17 212.838H132.9L128.99 219.326ZM116.986 225H112.827L117.37 217.54L120.219 219.236L116.986 225ZM124.74 225H121.258V212.838H124.74V225ZM122.298 220.388H118.094V217.563H122.298V220.388ZM117.009 219.326L113.098 212.838H116.828L120.309 218.964L117.009 219.326ZM140.597 225.181C139.211 225.181 137.99 224.91 136.935 224.367C135.895 223.825 135.089 223.086 134.516 222.152C133.944 221.202 133.657 220.125 133.657 218.919C133.657 217.698 133.936 216.621 134.494 215.687C135.066 214.737 135.842 213.999 136.822 213.471C137.802 212.929 138.909 212.657 140.145 212.657C141.336 212.657 142.406 212.914 143.355 213.426C144.319 213.923 145.081 214.647 145.638 215.596C146.196 216.53 146.475 217.653 146.475 218.964C146.475 219.1 146.467 219.258 146.452 219.439C146.437 219.605 146.422 219.763 146.407 219.914H136.528V217.857H144.553L143.197 218.467C143.197 217.834 143.069 217.284 142.812 216.817C142.556 216.35 142.202 215.988 141.75 215.732C141.298 215.46 140.77 215.325 140.168 215.325C139.565 215.325 139.03 215.46 138.563 215.732C138.11 215.988 137.756 216.357 137.5 216.839C137.244 217.307 137.116 217.864 137.116 218.512V219.055C137.116 219.718 137.259 220.306 137.545 220.818C137.847 221.315 138.261 221.7 138.789 221.971C139.331 222.227 139.964 222.355 140.688 222.355C141.336 222.355 141.901 222.257 142.383 222.061C142.88 221.865 143.332 221.571 143.739 221.18L145.616 223.214C145.058 223.847 144.357 224.337 143.513 224.684C142.669 225.015 141.697 225.181 140.597 225.181ZM149.178 225V212.838H152.681V217.585H157.971V212.838H161.498V225H157.971V220.456H152.681V225H149.178ZM164.873 225V212.838H168.377V220.072L174.3 212.838H177.533V225H174.029V217.766L168.129 225H164.873ZM186.868 225.181C185.481 225.181 184.261 224.91 183.206 224.367C182.166 223.825 181.36 223.086 180.787 222.152C180.214 221.202 179.928 220.125 179.928 218.919C179.928 217.698 180.207 216.621 180.764 215.687C181.337 214.737 182.113 213.999 183.093 213.471C184.072 212.929 185.18 212.657 186.416 212.657C187.606 212.657 188.676 212.914 189.626 213.426C190.59 213.923 191.351 214.647 191.909 215.596C192.466 216.53 192.745 217.653 192.745 218.964C192.745 219.1 192.738 219.258 192.723 219.439C192.707 219.605 192.692 219.763 192.677 219.914H182.799V217.857H190.824L189.467 218.467C189.467 217.834 189.339 217.284 189.083 216.817C188.827 216.35 188.473 215.988 188.021 215.732C187.568 215.46 187.041 215.325 186.438 215.325C185.835 215.325 185.3 215.46 184.833 215.732C184.381 215.988 184.027 216.357 183.771 216.839C183.515 217.307 183.386 217.864 183.386 218.512V219.055C183.386 219.718 183.53 220.306 183.816 220.818C184.117 221.315 184.532 221.7 185.059 221.971C185.602 222.227 186.235 222.355 186.958 222.355C187.606 222.355 188.171 222.257 188.654 222.061C189.151 221.865 189.603 221.571 190.01 221.18L191.886 223.214C191.329 223.847 190.628 224.337 189.784 224.684C188.94 225.015 187.968 225.181 186.868 225.181Z" fill="white"/>
<path d="M37.3351 240V232.583H37.7908L41.2346 238.527H40.9909L44.4241 232.583H44.8691L44.8797 240H44.3499L44.3393 233.398H44.4877L41.2346 239.015H40.9697L37.706 233.398H37.865V240H37.3351ZM47.3579 240V234.469H47.8877V239.184L51.8295 234.469H52.2957V240H51.7659V235.285L47.8241 240H47.3579ZM54.5807 240V234.469H55.1106V236.991H58.8617V234.469H59.3915V240H58.8617V237.457H55.1106V240H54.5807ZM61.6795 240V234.469H62.2093V239.184L66.1511 234.469H66.6174V240H66.0875V235.285L62.1457 240H61.6795ZM68.9024 240V234.469H69.4216L72.0389 238.845H71.8057L74.4336 234.469H74.9211V240H74.4336V235.104L74.5396 235.147L72.0283 239.29H71.7846L69.2626 235.115L69.3898 235.094V240H68.9024ZM80.6662 240V238.739L80.645 238.548V236.471C80.645 235.956 80.5037 235.564 80.2211 235.295C79.9456 235.027 79.5394 234.893 79.0026 234.893C78.6211 234.893 78.2643 234.96 77.9323 235.094C77.6074 235.221 77.3283 235.387 77.0952 235.592L76.8303 235.21C77.1058 234.963 77.4378 234.772 77.8264 234.638C78.2149 234.497 78.6211 234.426 79.0449 234.426C79.7302 234.426 80.2565 234.599 80.6238 234.946C80.9911 235.292 81.1748 235.807 81.1748 236.493V240H80.6662ZM78.6741 240.042C78.2643 240.042 77.9076 239.979 77.6038 239.852C77.3071 239.717 77.0776 239.53 76.9151 239.29C76.7597 239.05 76.682 238.774 76.682 238.464C76.682 238.181 76.7455 237.927 76.8727 237.701C77.0069 237.467 77.2259 237.28 77.5297 237.139C77.8334 236.991 78.2396 236.916 78.7482 236.916H80.7827V237.33H78.7588C78.1866 237.33 77.784 237.436 77.5509 237.648C77.3248 237.86 77.2118 238.124 77.2118 238.442C77.2118 238.796 77.346 239.078 77.6144 239.29C77.8829 239.502 78.2608 239.608 78.7482 239.608C79.2145 239.608 79.6065 239.502 79.9244 239.29C80.2494 239.078 80.4896 238.771 80.645 238.368L80.7933 238.728C80.645 239.131 80.3907 239.453 80.0304 239.693C79.6772 239.926 79.2251 240.042 78.6741 240.042ZM82.236 239.979L82.289 239.523C82.3314 239.53 82.3738 239.541 82.4161 239.555C82.4656 239.562 82.508 239.566 82.5433 239.566C82.7835 239.566 82.9742 239.477 83.1155 239.301C83.2568 239.117 83.3628 238.873 83.4334 238.569C83.5111 238.266 83.5641 237.923 83.5923 237.542C83.6277 237.16 83.6559 236.772 83.6771 236.376L83.7725 234.469H87.6507V240H87.1209V234.776L87.2693 234.946H84.1116L84.2493 234.765L84.1645 236.418C84.1363 236.899 84.0974 237.358 84.048 237.796C83.9985 238.234 83.9244 238.622 83.8255 238.962C83.7266 239.301 83.5853 239.569 83.4016 239.767C83.2179 239.958 82.9813 240.053 82.6917 240.053C82.621 240.053 82.5468 240.046 82.4691 240.032C82.3985 240.018 82.3208 240 82.236 239.979ZM92.1544 236.482C92.8397 236.489 93.3624 236.641 93.7227 236.938C94.083 237.227 94.2631 237.655 94.2631 238.22C94.2631 238.806 94.0724 239.255 93.6909 239.566C93.3094 239.876 92.7549 240.028 92.0273 240.021L89.9398 240V234.469H90.4696V236.461L92.1544 236.482ZM92.0167 239.597C92.5818 239.604 93.0057 239.491 93.2882 239.258C93.5779 239.025 93.7227 238.679 93.7227 238.22C93.7227 237.775 93.5814 237.443 93.2988 237.224C93.0163 237.005 92.5889 236.892 92.0167 236.885L90.4696 236.874V239.576L92.0167 239.597ZM95.7967 240V234.469H96.3266V236.991H100.078V234.469H100.607V240H100.078V237.457H96.3266V240H95.7967ZM106.35 240V238.739L106.329 238.548V236.471C106.329 235.956 106.187 235.564 105.905 235.295C105.629 235.027 105.223 234.893 104.686 234.893C104.305 234.893 103.948 234.96 103.616 235.094C103.291 235.221 103.012 235.387 102.779 235.592L102.514 235.21C102.79 234.963 103.122 234.772 103.51 234.638C103.899 234.497 104.305 234.426 104.729 234.426C105.414 234.426 105.94 234.599 106.307 234.946C106.675 235.292 106.858 235.807 106.858 236.493V240H106.35ZM104.358 240.042C103.948 240.042 103.591 239.979 103.288 239.852C102.991 239.717 102.761 239.53 102.599 239.29C102.443 239.05 102.366 238.774 102.366 238.464C102.366 238.181 102.429 237.927 102.556 237.701C102.691 237.467 102.91 237.28 103.213 237.139C103.517 236.991 103.923 236.916 104.432 236.916H106.466V237.33H104.443C103.87 237.33 103.468 237.436 103.235 237.648C103.008 237.86 102.895 238.124 102.895 238.442C102.895 238.796 103.03 239.078 103.298 239.29C103.567 239.502 103.945 239.608 104.432 239.608C104.898 239.608 105.29 239.502 105.608 239.29C105.933 239.078 106.173 238.771 106.329 238.368L106.477 238.728C106.329 239.131 106.074 239.453 105.714 239.693C105.361 239.926 104.909 240.042 104.358 240.042ZM112.603 240V237.966L112.72 238.093H110.76C110.067 238.093 109.527 237.944 109.138 237.648C108.757 237.344 108.566 236.899 108.566 236.312C108.566 235.691 108.774 235.228 109.191 234.924C109.608 234.621 110.159 234.469 110.844 234.469H113.091V240H112.603ZM108.534 240L110.071 237.87H110.632L109.117 240H108.534ZM112.603 237.817V234.776L112.72 234.935H110.876C110.311 234.935 109.873 235.044 109.562 235.263C109.251 235.482 109.096 235.839 109.096 236.334C109.096 237.238 109.668 237.69 110.812 237.69H112.72L112.603 237.817ZM120.332 240.042C119.796 240.042 119.315 239.922 118.891 239.682C118.475 239.442 118.143 239.11 117.895 238.686C117.655 238.262 117.535 237.778 117.535 237.234C117.535 236.683 117.655 236.196 117.895 235.772C118.143 235.348 118.475 235.02 118.891 234.787C119.315 234.546 119.796 234.426 120.332 234.426C120.778 234.426 121.18 234.511 121.54 234.681C121.908 234.85 122.204 235.104 122.431 235.444L122.038 235.73C121.841 235.447 121.593 235.239 121.297 235.104C121 234.97 120.679 234.903 120.332 234.903C119.902 234.903 119.513 235.002 119.167 235.2C118.828 235.391 118.559 235.663 118.362 236.016C118.171 236.362 118.075 236.768 118.075 237.234C118.075 237.701 118.171 238.11 118.362 238.464C118.559 238.81 118.828 239.082 119.167 239.279C119.513 239.47 119.902 239.566 120.332 239.566C120.679 239.566 121 239.498 121.297 239.364C121.593 239.23 121.841 239.022 122.038 238.739L122.431 239.025C122.204 239.364 121.908 239.619 121.54 239.788C121.18 239.958 120.778 240.042 120.332 240.042ZM123.838 242.098C123.584 242.098 123.344 242.056 123.118 241.971C122.899 241.886 122.712 241.763 122.556 241.6L122.821 241.197C122.962 241.346 123.114 241.455 123.277 241.526C123.446 241.597 123.637 241.632 123.849 241.632C124.103 241.632 124.326 241.561 124.516 241.42C124.714 241.279 124.898 241.021 125.067 240.646L125.449 239.799L125.523 239.703L127.865 234.469H128.405L125.565 240.752C125.417 241.091 125.255 241.356 125.078 241.547C124.909 241.745 124.721 241.886 124.516 241.971C124.312 242.056 124.086 242.098 123.838 242.098ZM125.438 240.138L122.874 234.469H123.436L125.767 239.672L125.438 240.138ZM129.686 240V234.469H130.206L132.823 238.845H132.59L135.218 234.469H135.705V240H135.218V235.104L135.324 235.147L132.812 239.29H132.569L130.047 235.115L130.174 235.094V240H129.686ZM137.996 240V234.469H138.515L141.132 238.845H140.899L143.527 234.469H144.015V240H143.527V235.104L143.633 235.147L141.122 239.29H140.878L138.356 235.115L138.483 235.094V240H137.996ZM149.76 240V238.739L149.738 238.548V236.471C149.738 235.956 149.597 235.564 149.315 235.295C149.039 235.027 148.633 234.893 148.096 234.893C147.715 234.893 147.358 234.96 147.026 235.094C146.701 235.221 146.422 235.387 146.189 235.592L145.924 235.21C146.199 234.963 146.531 234.772 146.92 234.638C147.308 234.497 147.715 234.426 148.138 234.426C148.824 234.426 149.35 234.599 149.717 234.946C150.085 235.292 150.268 235.807 150.268 236.493V240H149.76ZM147.768 240.042C147.358 240.042 147.001 239.979 146.697 239.852C146.401 239.717 146.171 239.53 146.009 239.29C145.853 239.05 145.775 238.774 145.775 238.464C145.775 238.181 145.839 237.927 145.966 237.701C146.1 237.467 146.319 237.28 146.623 237.139C146.927 236.991 147.333 236.916 147.842 236.916H149.876V237.33H147.852C147.28 237.33 146.877 237.436 146.644 237.648C146.418 237.86 146.305 238.124 146.305 238.442C146.305 238.796 146.439 239.078 146.708 239.29C146.976 239.502 147.354 239.608 147.842 239.608C148.308 239.608 148.7 239.502 149.018 239.29C149.343 239.078 149.583 238.771 149.738 238.368L149.887 238.728C149.738 239.131 149.484 239.453 149.124 239.693C148.771 239.926 148.319 240.042 147.768 240.042ZM38.5113 253.053C38.1299 253.053 37.7449 252.993 37.3563 252.873C36.9678 252.753 36.6252 252.569 36.3285 252.322L36.5298 251.93C36.7983 252.156 37.1091 252.325 37.4623 252.438C37.8155 252.544 38.1687 252.594 38.5219 252.587C38.8822 252.587 39.1966 252.534 39.465 252.428C39.7405 252.322 39.9524 252.177 40.1008 251.993C40.2491 251.81 40.3233 251.605 40.3233 251.379C40.3233 251.047 40.175 250.789 39.8783 250.605C39.5816 250.422 39.1754 250.33 38.6597 250.33H37.7696V249.927H38.6385C38.9352 249.927 39.1966 249.888 39.4226 249.811C39.6557 249.733 39.8359 249.62 39.963 249.471C40.0972 249.316 40.1644 249.136 40.1644 248.931C40.1644 248.705 40.0867 248.514 39.9312 248.359C39.7829 248.196 39.578 248.076 39.3167 247.999C39.0623 247.921 38.7762 247.882 38.4583 247.882C38.1828 247.889 37.8967 247.931 37.6 248.009C37.3104 248.087 37.0243 248.203 36.7417 248.359L36.5722 247.935C36.883 247.765 37.1974 247.638 37.5153 247.553C37.8332 247.469 38.1546 247.423 38.4795 247.416C38.8893 247.409 39.2637 247.465 39.6028 247.585C39.9418 247.698 40.2103 247.864 40.4081 248.083C40.6059 248.295 40.7048 248.553 40.7048 248.857C40.7048 249.132 40.62 249.373 40.4505 249.577C40.288 249.775 40.0619 249.931 39.7723 250.044C39.4897 250.157 39.1718 250.213 38.8186 250.213L38.861 250.044C39.4968 250.044 39.9878 250.167 40.3339 250.414C40.6871 250.662 40.8637 250.994 40.8637 251.411C40.8637 251.743 40.7578 252.032 40.5458 252.279C40.3339 252.527 40.0478 252.717 39.6875 252.852C39.3343 252.986 38.9422 253.053 38.5113 253.053ZM46.1764 253V251.739L46.1552 251.548V249.471C46.1552 248.956 46.0139 248.564 45.7313 248.295C45.4558 248.027 45.0496 247.893 44.5127 247.893C44.1313 247.893 43.7745 247.96 43.4425 248.094C43.1176 248.221 42.8385 248.387 42.6054 248.592L42.3405 248.21C42.616 247.963 42.948 247.772 43.3366 247.638C43.7251 247.497 44.1313 247.426 44.5551 247.426C45.2404 247.426 45.7666 247.599 46.134 247.946C46.5013 248.292 46.685 248.807 46.685 249.493V253H46.1764ZM44.1843 253.042C43.7745 253.042 43.4178 252.979 43.114 252.852C42.8173 252.717 42.5877 252.53 42.4253 252.29C42.2699 252.05 42.1921 251.774 42.1921 251.464C42.1921 251.181 42.2557 250.927 42.3829 250.701C42.5171 250.467 42.7361 250.28 43.0399 250.139C43.3436 249.991 43.7498 249.916 44.2584 249.916H46.2929V250.33H44.269C43.6968 250.33 43.2942 250.436 43.061 250.648C42.835 250.86 42.722 251.124 42.722 251.442C42.722 251.796 42.8562 252.078 43.1246 252.29C43.3931 252.502 43.771 252.608 44.2584 252.608C44.7247 252.608 45.1167 252.502 45.4346 252.29C45.7596 252.078 45.9998 251.771 46.1552 251.368L46.3035 251.728C46.1552 252.131 45.9009 252.453 45.5406 252.693C45.1874 252.926 44.7353 253.042 44.1843 253.042ZM52.9172 253L50.5436 250.234L50.9887 249.98L53.553 253H52.9172ZM48.8376 253V247.469H49.3674V253H48.8376ZM49.1979 250.436V249.98H50.9357V250.436H49.1979ZM51.0205 250.287L50.533 250.203L52.8006 247.469H53.3834L51.0205 250.287ZM58.2111 253V251.739L58.1899 251.548V249.471C58.1899 248.956 58.0486 248.564 57.766 248.295C57.4905 248.027 57.0843 247.893 56.5474 247.893C56.166 247.893 55.8092 247.96 55.4772 248.094C55.1523 248.221 54.8732 248.387 54.6401 248.592L54.3752 248.21C54.6507 247.963 54.9827 247.772 55.3713 247.638C55.7598 247.497 56.166 247.426 56.5898 247.426C57.2751 247.426 57.8013 247.599 58.1687 247.946C58.536 248.292 58.7197 248.807 58.7197 249.493V253H58.2111ZM56.219 253.042C55.8092 253.042 55.4525 252.979 55.1487 252.852C54.852 252.717 54.6224 252.53 54.46 252.29C54.3046 252.05 54.2268 251.774 54.2268 251.464C54.2268 251.181 54.2904 250.927 54.4176 250.701C54.5518 250.467 54.7708 250.28 55.0746 250.139C55.3783 249.991 55.7845 249.916 56.2931 249.916H58.3276V250.33H56.3037C55.7315 250.33 55.3289 250.436 55.0957 250.648C54.8697 250.86 54.7567 251.124 54.7567 251.442C54.7567 251.796 54.8909 252.078 55.1593 252.29C55.4278 252.502 55.8057 252.608 56.2931 252.608C56.7594 252.608 57.1514 252.502 57.4693 252.29C57.7943 252.078 58.0345 251.771 58.1899 251.368L58.3382 251.728C58.1899 252.131 57.9356 252.453 57.5753 252.693C57.2221 252.926 56.77 253.042 56.219 253.042ZM62.1047 253.053C61.7233 253.053 61.3383 252.993 60.9497 252.873C60.5612 252.753 60.2186 252.569 59.9219 252.322L60.1232 251.93C60.3917 252.156 60.7025 252.325 61.0557 252.438C61.4089 252.544 61.7621 252.594 62.1153 252.587C62.4756 252.587 62.79 252.534 63.0584 252.428C63.3339 252.322 63.5458 252.177 63.6942 251.993C63.8425 251.81 63.9167 251.605 63.9167 251.379C63.9167 251.047 63.7683 250.789 63.4717 250.605C63.175 250.422 62.7688 250.33 62.2531 250.33H61.363V249.927H62.2319C62.5286 249.927 62.79 249.888 63.016 249.811C63.2491 249.733 63.4293 249.62 63.5564 249.471C63.6906 249.316 63.7578 249.136 63.7578 248.931C63.7578 248.705 63.68 248.514 63.5246 248.359C63.3763 248.196 63.1714 248.076 62.91 247.999C62.6557 247.921 62.3696 247.882 62.0517 247.882C61.7762 247.889 61.4901 247.931 61.1934 248.009C60.9038 248.087 60.6177 248.203 60.3351 248.359L60.1656 247.935C60.4764 247.765 60.7908 247.638 61.1087 247.553C61.4266 247.469 61.748 247.423 62.0729 247.416C62.4827 247.409 62.8571 247.465 63.1961 247.585C63.5352 247.698 63.8037 247.864 64.0015 248.083C64.1993 248.295 64.2982 248.553 64.2982 248.857C64.2982 249.132 64.2134 249.373 64.0439 249.577C63.8814 249.775 63.6553 249.931 63.3657 250.044C63.0831 250.157 62.7652 250.213 62.412 250.213L62.4544 250.044C63.0902 250.044 63.5811 250.167 63.9273 250.414C64.2805 250.662 64.4571 250.994 64.4571 251.411C64.4571 251.743 64.3511 252.032 64.1392 252.279C63.9273 252.527 63.6412 252.717 63.2809 252.852C62.9277 252.986 62.5356 253.053 62.1047 253.053ZM69.7698 253V251.739L69.7486 251.548V249.471C69.7486 248.956 69.6073 248.564 69.3247 248.295C69.0492 248.027 68.643 247.893 68.1061 247.893C67.7247 247.893 67.3679 247.96 67.0359 248.094C66.711 248.221 66.4319 248.387 66.1988 248.592L65.9339 248.21C66.2094 247.963 66.5414 247.772 66.9299 247.638C67.3185 247.497 67.7247 247.426 68.1485 247.426C68.8338 247.426 69.36 247.599 69.7274 247.946C70.0947 248.292 70.2784 248.807 70.2784 249.493V253H69.7698ZM67.7777 253.042C67.3679 253.042 67.0112 252.979 66.7074 252.852C66.4107 252.717 66.1811 252.53 66.0187 252.29C65.8632 252.05 65.7855 251.774 65.7855 251.464C65.7855 251.181 65.8491 250.927 65.9763 250.701C66.1105 250.467 66.3295 250.28 66.6332 250.139C66.937 249.991 67.3432 249.916 67.8518 249.916H69.8863V250.33H67.8624C67.2902 250.33 66.8876 250.436 66.6544 250.648C66.4284 250.86 66.3154 251.124 66.3154 251.442C66.3154 251.796 66.4496 252.078 66.718 252.29C66.9865 252.502 67.3644 252.608 67.8518 252.608C68.3181 252.608 68.7101 252.502 69.028 252.29C69.353 252.078 69.5932 251.771 69.7486 251.368L69.8969 251.728C69.7486 252.131 69.4943 252.453 69.134 252.693C68.7808 252.926 68.3287 253.042 67.7777 253.042ZM76.7632 253.053C76.2192 253.053 75.7106 252.961 75.2373 252.777C74.7711 252.594 74.4073 252.354 74.1459 252.057L74.4214 251.644C74.6474 251.905 74.9653 252.124 75.3751 252.301C75.7918 252.47 76.2546 252.555 76.7632 252.555C77.4272 252.555 77.9323 252.407 78.2785 252.11C78.6317 251.813 78.8083 251.414 78.8083 250.913C78.8083 250.418 78.6317 250.022 78.2785 249.726C77.9323 249.422 77.3884 249.27 76.6466 249.27H76.1804V248.878L78.5434 245.858L78.6175 246.07H74.4214V245.583H79.0732V245.964L76.7208 248.984L76.4877 248.814H76.7208C77.6038 248.814 78.2643 249.009 78.7023 249.397C79.1403 249.786 79.3593 250.291 79.3593 250.913C79.3593 251.322 79.2604 251.69 79.0626 252.015C78.8718 252.339 78.5822 252.594 78.1937 252.777C77.8122 252.961 77.3354 253.053 76.7632 253.053ZM80.9765 253.042C80.8564 253.042 80.7504 253 80.6586 252.915C80.5738 252.823 80.5314 252.714 80.5314 252.587C80.5314 252.46 80.5738 252.354 80.6586 252.269C80.7504 252.184 80.8564 252.142 80.9765 252.142C81.0965 252.142 81.199 252.184 81.2838 252.269C81.3756 252.354 81.4215 252.46 81.4215 252.587C81.4215 252.714 81.3756 252.823 81.2838 252.915C81.199 253 81.0965 253.042 80.9765 253.042ZM84.9204 253.053C84.3835 253.053 83.8784 252.961 83.4051 252.777C82.9388 252.594 82.575 252.354 82.3137 252.057L82.5892 251.644C82.8152 251.905 83.1331 252.124 83.5428 252.301C83.9526 252.47 84.4082 252.555 84.9098 252.555C85.595 252.555 86.1107 252.4 86.4568 252.089C86.803 251.778 86.976 251.375 86.976 250.881C86.976 250.528 86.8948 250.224 86.7323 249.969C86.5699 249.715 86.2944 249.521 85.9058 249.387C85.5173 249.245 84.9875 249.175 84.3164 249.175H82.8117L83.2038 245.583H87.135V246.07H83.4263L83.6912 245.816L83.3415 248.963L83.0872 248.687H84.4329C85.1888 248.687 85.7893 248.779 86.2343 248.963C86.6864 249.139 87.0114 249.39 87.2092 249.715C87.414 250.04 87.5165 250.422 87.5165 250.86C87.5165 251.269 87.4211 251.64 87.2304 251.972C87.0396 252.304 86.75 252.569 86.3615 252.767C85.98 252.958 85.4996 253.053 84.9204 253.053ZM91.4331 253.053C90.8679 253.053 90.3664 252.901 89.9284 252.597C89.4904 252.294 89.1478 251.863 88.9005 251.305C88.6533 250.739 88.5297 250.068 88.5297 249.291C88.5297 248.514 88.6533 247.847 88.9005 247.289C89.1478 246.723 89.4904 246.289 89.9284 245.985C90.3664 245.681 90.8679 245.53 91.4331 245.53C92.0053 245.53 92.5068 245.681 92.9377 245.985C93.3757 246.289 93.7183 246.723 93.9656 247.289C94.2128 247.847 94.3364 248.514 94.3364 249.291C94.3364 250.068 94.2128 250.739 93.9656 251.305C93.7183 251.863 93.3757 252.294 92.9377 252.597C92.5068 252.901 92.0053 253.053 91.4331 253.053ZM91.4331 252.555C91.9064 252.555 92.3196 252.428 92.6728 252.173C93.026 251.912 93.3015 251.538 93.4993 251.05C93.6971 250.563 93.796 249.977 93.796 249.291C93.796 248.599 93.6971 248.013 93.4993 247.532C93.3015 247.045 93.026 246.674 92.6728 246.42C92.3196 246.158 91.9064 246.028 91.4331 246.028C90.9668 246.028 90.5536 246.158 90.1933 246.42C89.8401 246.674 89.5646 247.045 89.3668 247.532C89.169 248.013 89.0701 248.599 89.0701 249.291C89.0701 249.977 89.169 250.563 89.3668 251.05C89.5646 251.538 89.8401 251.912 90.1933 252.173C90.5536 252.428 90.9668 252.555 91.4331 252.555ZM98.4076 253.053C97.8424 253.053 97.3409 252.901 96.9029 252.597C96.4649 252.294 96.1223 251.863 95.8751 251.305C95.6278 250.739 95.5042 250.068 95.5042 249.291C95.5042 248.514 95.6278 247.847 95.8751 247.289C96.1223 246.723 96.4649 246.289 96.9029 245.985C97.3409 245.681 97.8424 245.53 98.4076 245.53C98.9798 245.53 99.4813 245.681 99.9123 245.985C100.35 246.289 100.693 246.723 100.94 247.289C101.187 247.847 101.311 248.514 101.311 249.291C101.311 250.068 101.187 250.739 100.94 251.305C100.693 251.863 100.35 252.294 99.9123 252.597C99.4813 252.901 98.9798 253.053 98.4076 253.053ZM98.4076 252.555C98.8809 252.555 99.2941 252.428 99.6474 252.173C100.001 251.912 100.276 251.538 100.474 251.05C100.672 250.563 100.771 249.977 100.771 249.291C100.771 248.599 100.672 248.013 100.474 247.532C100.276 247.045 100.001 246.674 99.6474 246.42C99.2941 246.158 98.8809 246.028 98.4076 246.028C97.9413 246.028 97.5281 246.158 97.1678 246.42C96.8146 246.674 96.5391 247.045 96.3413 247.532C96.1435 248.013 96.0446 248.599 96.0446 249.291C96.0446 249.977 96.1435 250.563 96.3413 251.05C96.5391 251.538 96.8146 251.912 97.1678 252.173C97.5281 252.428 97.9413 252.555 98.4076 252.555ZM106.769 253V247.787L106.917 247.946H104.607V247.469H109.46V247.946H107.15L107.298 247.787V253H106.769ZM110.594 253V247.469H114.377V247.946H110.976L111.124 247.797V253H110.594ZM114.97 253.042C114.849 253.042 114.744 253 114.652 252.915C114.567 252.823 114.525 252.714 114.525 252.587C114.525 252.46 114.567 252.354 114.652 252.269C114.744 252.184 114.849 252.142 114.97 252.142C115.09 252.142 115.192 252.184 115.277 252.269C115.369 252.354 115.415 252.46 115.415 252.587C115.415 252.714 115.369 252.823 115.277 252.915C115.192 253 115.09 253.042 114.97 253.042Z" fill="white"/>
<rect x="36" y="268" width="250" height="60" rx="30" fill="white"/>
<path d="M95.9464 315V285.536H102.807L119.054 305.151H115.813V285.536H123.979V315H117.118L100.871 295.386H104.112V315H95.9464ZM137.518 296.943H151.198V303.172H137.518V296.943ZM138.107 308.56H153.513V315H129.858V285.536H152.966V291.976H138.107V308.56ZM165.008 315L155.453 285.536H164.04L172.079 311.043H167.744L176.204 285.536H183.865L191.862 311.043H187.695L195.987 285.536H203.942L194.388 315H185.464L178.646 293.323H181.045L173.931 315H165.008ZM222.572 315V288.525L226.15 291.976H217.1V285.536H230.906V315H222.572Z" fill="#E94A4E"/>
</svg>
