<svg width="316" height="381" viewBox="0 0 316 381" fill="none" xmlns="http://www.w3.org/2000/svg">
<rect width="315.247" height="381" rx="39" fill="url(#paint0_linear_12_151)"/>
<path d="M53.8615 223.797V208.618H46.5171L46.4253 211.74C46.3641 213.066 46.2723 214.32 46.1499 215.504C46.0479 216.687 45.8847 217.768 45.6603 218.747C45.4359 219.706 45.14 220.522 44.7728 221.196C44.426 221.869 43.9874 222.348 43.4569 222.634L38.1629 221.961C38.8973 221.981 39.4991 221.726 39.9684 221.196C40.458 220.665 40.8456 219.92 41.1312 218.962C41.4168 217.982 41.6208 216.84 41.7433 215.534C41.8861 214.229 41.9881 212.811 42.0493 211.281L42.2941 204.579H58.7578V223.797H53.8615ZM37.459 230.437L37.4896 221.961H61.7567V230.437H57.1665V226H42.0493V230.437H37.459ZM72.2591 226.245C70.5046 226.245 68.9439 225.878 67.577 225.143C66.2305 224.409 65.1595 223.409 64.3638 222.144C63.5886 220.859 63.201 219.4 63.201 217.768C63.201 216.116 63.5886 214.657 64.3638 213.392C65.1595 212.107 66.2305 211.107 67.577 210.393C68.9439 209.659 70.5046 209.292 72.2591 209.292C73.9932 209.292 75.5436 209.659 76.9105 210.393C78.2774 211.107 79.3485 212.097 80.1237 213.362C80.8989 214.626 81.2866 216.095 81.2866 217.768C81.2866 219.4 80.8989 220.859 80.1237 222.144C79.3485 223.409 78.2774 224.409 76.9105 225.143C75.5436 225.878 73.9932 226.245 72.2591 226.245ZM72.2591 222.328C73.0547 222.328 73.7688 222.144 74.4012 221.777C75.0336 221.41 75.5334 220.89 75.9007 220.216C76.2679 219.523 76.4515 218.707 76.4515 217.768C76.4515 216.809 76.2679 215.993 75.9007 215.32C75.5334 214.647 75.0336 214.127 74.4012 213.759C73.7688 213.392 73.0547 213.209 72.2591 213.209C71.4634 213.209 70.7494 213.392 70.117 213.759C69.4845 214.127 68.9745 214.647 68.5869 215.32C68.2197 215.993 68.036 216.809 68.036 217.768C68.036 218.707 68.2197 219.523 68.5869 220.216C68.9745 220.89 69.4845 221.41 70.117 221.777C70.7494 222.144 71.4634 222.328 72.2591 222.328ZM92.404 226.245C90.6291 226.245 89.0481 225.888 87.6608 225.174C86.2735 224.439 85.182 223.429 84.3864 222.144C83.6112 220.859 83.2235 219.4 83.2235 217.768C83.2235 216.116 83.6112 214.657 84.3864 213.392C85.182 212.107 86.2735 211.107 87.6608 210.393C89.0481 209.659 90.6291 209.292 92.404 209.292C94.1381 209.292 95.6478 209.659 96.9331 210.393C98.2183 211.107 99.167 212.137 99.779 213.484L96.0762 215.473C95.6478 214.698 95.1072 214.127 94.4543 213.759C93.8219 213.392 93.1283 213.209 92.3734 213.209C91.5574 213.209 90.823 213.392 90.1701 213.759C89.5173 214.127 88.9971 214.647 88.6094 215.32C88.2422 215.993 88.0586 216.809 88.0586 217.768C88.0586 218.727 88.2422 219.543 88.6094 220.216C88.9971 220.89 89.5173 221.41 90.1701 221.777C90.823 222.144 91.5574 222.328 92.3734 222.328C93.1283 222.328 93.8219 222.154 94.4543 221.808C95.1072 221.44 95.6478 220.859 96.0762 220.063L99.779 222.083C99.167 223.409 98.2183 224.439 96.9331 225.174C95.6478 225.888 94.1381 226.245 92.404 226.245ZM106.169 226V212.352L107.24 213.453H100.6V209.536H116.482V213.453H109.841L110.913 212.352V226H106.169ZM128.88 226V222.787L128.574 222.083V216.33C128.574 215.31 128.258 214.514 127.626 213.943C127.014 213.372 126.065 213.086 124.78 213.086C123.903 213.086 123.036 213.229 122.179 213.515C121.342 213.78 120.628 214.147 120.037 214.616L118.323 211.281C119.221 210.648 120.302 210.159 121.567 209.812C122.832 209.465 124.117 209.292 125.422 209.292C127.932 209.292 129.88 209.883 131.267 211.066C132.655 212.25 133.348 214.096 133.348 216.605V226H128.88ZM123.862 226.245C122.577 226.245 121.475 226.031 120.557 225.602C119.639 225.153 118.935 224.552 118.445 223.797C117.956 223.042 117.711 222.195 117.711 221.257C117.711 220.277 117.945 219.421 118.415 218.686C118.904 217.952 119.669 217.381 120.71 216.973C121.75 216.544 123.107 216.33 124.78 216.33H129.156V219.115H125.3C124.178 219.115 123.403 219.298 122.974 219.665C122.566 220.033 122.362 220.492 122.362 221.043C122.362 221.655 122.597 222.144 123.066 222.511C123.556 222.858 124.219 223.032 125.055 223.032C125.851 223.032 126.565 222.848 127.197 222.481C127.83 222.093 128.289 221.532 128.574 220.798L129.309 223.001C128.962 224.062 128.33 224.868 127.412 225.419C126.494 225.969 125.31 226.245 123.862 226.245ZM137.495 226V209.536H145.911C147.971 209.536 149.583 209.914 150.746 210.669C151.909 211.403 152.49 212.443 152.49 213.79C152.49 215.136 151.939 216.197 150.838 216.973C149.756 217.727 148.318 218.105 146.523 218.105L147.012 217.003C149.012 217.003 150.501 217.37 151.48 218.105C152.48 218.839 152.98 219.91 152.98 221.318C152.98 222.766 152.429 223.909 151.327 224.745C150.226 225.582 148.543 226 146.278 226H137.495ZM141.871 222.756H145.88C146.757 222.756 147.41 222.613 147.839 222.328C148.287 222.022 148.512 221.563 148.512 220.951C148.512 220.318 148.308 219.859 147.9 219.574C147.492 219.268 146.849 219.115 145.972 219.115H141.871V222.756ZM141.871 216.299H145.482C146.319 216.299 146.941 216.146 147.349 215.84C147.777 215.534 147.992 215.096 147.992 214.524C147.992 213.933 147.777 213.494 147.349 213.209C146.941 212.923 146.319 212.78 145.482 212.78H141.871V216.299ZM168.191 226L162.683 218.197L166.569 215.901L173.822 226H168.191ZM156.532 226V209.536H161.306V226H156.532ZM159.898 219.757V215.932H165.651V219.757H159.898ZM167.028 218.319L162.56 217.829L168.344 209.536H173.424L167.028 218.319ZM185.721 226V222.787L185.415 222.083V216.33C185.415 215.31 185.098 214.514 184.466 213.943C183.854 213.372 182.905 213.086 181.62 213.086C180.743 213.086 179.876 213.229 179.019 213.515C178.182 213.78 177.468 214.147 176.877 214.616L175.163 211.281C176.061 210.648 177.142 210.159 178.407 209.812C179.672 209.465 180.957 209.292 182.263 209.292C184.772 209.292 186.72 209.883 188.108 211.066C189.495 212.25 190.188 214.096 190.188 216.605V226H185.721ZM180.702 226.245C179.417 226.245 178.315 226.031 177.397 225.602C176.479 225.153 175.775 224.552 175.285 223.797C174.796 223.042 174.551 222.195 174.551 221.257C174.551 220.277 174.786 219.421 175.255 218.686C175.744 217.952 176.51 217.381 177.55 216.973C178.59 216.544 179.947 216.33 181.62 216.33H185.996V219.115H182.14C181.018 219.115 180.243 219.298 179.815 219.665C179.406 220.033 179.202 220.492 179.202 221.043C179.202 221.655 179.437 222.144 179.906 222.511C180.396 222.858 181.059 223.032 181.895 223.032C182.691 223.032 183.405 222.848 184.038 222.481C184.67 222.093 185.129 221.532 185.415 220.798L186.149 223.001C185.802 224.062 185.17 224.868 184.252 225.419C183.334 225.969 182.15 226.245 180.702 226.245ZM203.002 226V209.536H207.745V219.329L215.763 209.536H220.139V226H215.396V216.207L207.409 226H203.002ZM222.647 225.969L222.892 222.052C223.014 222.073 223.137 222.093 223.259 222.114C223.381 222.114 223.494 222.114 223.596 222.114C224.167 222.114 224.616 221.95 224.942 221.624C225.269 221.298 225.513 220.859 225.677 220.308C225.84 219.737 225.952 219.094 226.013 218.38C226.095 217.666 226.156 216.922 226.197 216.146L226.442 209.536H240.518V226H235.745V212.29L236.816 213.453H229.594L230.603 212.229L230.389 216.36C230.328 217.829 230.206 219.176 230.022 220.4C229.859 221.624 229.583 222.685 229.196 223.582C228.808 224.46 228.288 225.143 227.635 225.633C226.982 226.102 226.146 226.337 225.126 226.337C224.759 226.337 224.371 226.306 223.963 226.245C223.555 226.184 223.116 226.092 222.647 225.969ZM245.109 226V209.536H249.852V219.329L257.87 209.536H262.246V226H257.503V216.207L249.516 226H245.109ZM47.1291 263.245C45.3542 263.245 43.7732 262.888 42.3859 262.174C40.9986 261.439 39.9072 260.429 39.1115 259.144C38.3363 257.859 37.9487 256.4 37.9487 254.768C37.9487 253.116 38.3363 251.657 39.1115 250.392C39.9072 249.107 40.9986 248.107 42.3859 247.393C43.7732 246.659 45.3542 246.292 47.1291 246.292C48.8632 246.292 50.3729 246.659 51.6582 247.393C52.9435 248.107 53.8921 249.137 54.5041 250.484L50.8013 252.473C50.3729 251.698 49.8323 251.127 49.1795 250.759C48.547 250.392 47.8534 250.209 47.0985 250.209C46.2825 250.209 45.5481 250.392 44.8952 250.759C44.2424 251.127 43.7222 251.647 43.3345 252.32C42.9673 252.993 42.7837 253.809 42.7837 254.768C42.7837 255.727 42.9673 256.543 43.3345 257.216C43.7222 257.89 44.2424 258.41 44.8952 258.777C45.5481 259.144 46.2825 259.328 47.0985 259.328C47.8534 259.328 48.547 259.154 49.1795 258.808C49.8323 258.44 50.3729 257.859 50.8013 257.063L54.5041 259.083C53.8921 260.409 52.9435 261.439 51.6582 262.174C50.3729 262.888 48.8632 263.245 47.1291 263.245ZM67.2588 263V259.787L66.9528 259.083V253.33C66.9528 252.31 66.6366 251.514 66.0041 250.943C65.3921 250.372 64.4435 250.086 63.1582 250.086C62.2809 250.086 61.4139 250.229 60.557 250.515C59.7206 250.78 59.0066 251.147 58.4149 251.616L56.7012 248.281C57.5989 247.648 58.6801 247.159 59.945 246.812C61.2099 246.465 62.4952 246.292 63.8008 246.292C66.3102 246.292 68.2585 246.883 69.6457 248.066C71.033 249.25 71.7266 251.096 71.7266 253.605V263H67.2588ZM62.2401 263.245C60.9549 263.245 59.8532 263.031 58.9352 262.602C58.0171 262.153 57.3133 261.552 56.8236 260.797C56.334 260.042 56.0892 259.195 56.0892 258.257C56.0892 257.277 56.3238 256.421 56.793 255.686C57.2827 254.952 58.0477 254.381 59.0882 253.973C60.1286 253.544 61.4853 253.33 63.1582 253.33H67.5342V256.115H63.6784C62.5564 256.115 61.7811 256.298 61.3527 256.665C60.9447 257.033 60.7407 257.492 60.7407 258.043C60.7407 258.655 60.9753 259.144 61.4445 259.511C61.9341 259.858 62.5972 260.032 63.4336 260.032C64.2292 260.032 64.9433 259.848 65.5757 259.481C66.2082 259.093 66.6672 258.532 66.9528 257.798L67.6872 260.001C67.3404 261.062 66.708 261.868 65.7899 262.419C64.8719 262.969 63.6886 263.245 62.2401 263.245ZM75.8736 263V246.536H80.8617L87.0739 257.798H85.0847L91.7253 246.536H96.1931L96.2543 263H91.9395V251.433L92.674 251.922L87.0126 261.409H84.9929L79.301 251.586L80.1885 251.371V263H75.8736ZM108.539 263.245C106.784 263.245 105.224 262.878 103.857 262.143C102.51 261.409 101.439 260.409 100.644 259.144C99.8683 257.859 99.4807 256.4 99.4807 254.768C99.4807 253.116 99.8683 251.657 100.644 250.392C101.439 249.107 102.51 248.107 103.857 247.393C105.224 246.659 106.784 246.292 108.539 246.292C110.273 246.292 111.823 246.659 113.19 247.393C114.557 248.107 115.628 249.097 116.403 250.362C117.179 251.626 117.566 253.095 117.566 254.768C117.566 256.4 117.179 257.859 116.403 259.144C115.628 260.409 114.557 261.409 113.19 262.143C111.823 262.878 110.273 263.245 108.539 263.245ZM108.539 259.328C109.334 259.328 110.048 259.144 110.681 258.777C111.313 258.41 111.813 257.89 112.18 257.216C112.548 256.523 112.731 255.707 112.731 254.768C112.731 253.809 112.548 252.993 112.18 252.32C111.813 251.647 111.313 251.127 110.681 250.759C110.048 250.392 109.334 250.209 108.539 250.209C107.743 250.209 107.029 250.392 106.397 250.759C105.764 251.127 105.254 251.647 104.867 252.32C104.499 252.993 104.316 253.809 104.316 254.768C104.316 255.707 104.499 256.523 104.867 257.216C105.254 257.89 105.764 258.41 106.397 258.777C107.029 259.144 107.743 259.328 108.539 259.328ZM120.85 263V246.536H129.265C131.326 246.536 132.937 246.914 134.1 247.669C135.263 248.403 135.845 249.443 135.845 250.79C135.845 252.136 135.294 253.197 134.192 253.973C133.111 254.727 131.672 255.105 129.877 255.105L130.367 254.003C132.366 254.003 133.855 254.37 134.835 255.105C135.834 255.839 136.334 256.91 136.334 258.318C136.334 259.766 135.783 260.909 134.682 261.745C133.58 262.582 131.897 263 129.632 263H120.85ZM125.226 259.756H129.235C130.112 259.756 130.765 259.613 131.193 259.328C131.642 259.022 131.866 258.563 131.866 257.951C131.866 257.318 131.662 256.859 131.254 256.574C130.846 256.268 130.204 256.115 129.326 256.115H125.226V259.756ZM125.226 253.299H128.837C129.673 253.299 130.295 253.146 130.703 252.84C131.132 252.534 131.346 252.096 131.346 251.524C131.346 250.933 131.132 250.494 130.703 250.209C130.295 249.923 129.673 249.78 128.837 249.78H125.226V253.299ZM156.839 263V246.536H161.583V263H156.839ZM148.546 251.8C150.709 251.82 152.331 252.31 153.412 253.269C154.514 254.207 155.064 255.543 155.064 257.277C155.064 259.093 154.442 260.511 153.198 261.531C151.953 262.531 150.189 263.031 147.904 263.031L139.886 263V246.536H144.629V251.8H148.546ZM147.475 259.634C148.393 259.654 149.097 259.46 149.587 259.052C150.076 258.644 150.321 258.032 150.321 257.216C150.321 256.4 150.076 255.819 149.587 255.472C149.097 255.105 148.393 254.911 147.475 254.891L144.629 254.86V259.634H147.475ZM166.184 263V246.536H174.6C176.66 246.536 178.272 246.914 179.435 247.669C180.598 248.403 181.179 249.443 181.179 250.79C181.179 252.136 180.628 253.197 179.527 253.973C178.445 254.727 177.007 255.105 175.212 255.105L175.701 254.003C177.701 254.003 179.19 254.37 180.169 255.105C181.169 255.839 181.669 256.91 181.669 258.318C181.669 259.766 181.118 260.909 180.016 261.745C178.915 262.582 177.232 263 174.967 263H166.184ZM170.56 259.756H174.569C175.446 259.756 176.099 259.613 176.528 259.328C176.977 259.022 177.201 258.563 177.201 257.951C177.201 257.318 176.997 256.859 176.589 256.574C176.181 256.268 175.538 256.115 174.661 256.115H170.56V259.756ZM170.56 253.299H174.171C175.008 253.299 175.63 253.146 176.038 252.84C176.467 252.534 176.681 252.096 176.681 251.524C176.681 250.933 176.467 250.494 176.038 250.209C175.63 249.923 175.008 249.78 174.171 249.78H170.56V253.299ZM192.932 263.245C191.178 263.245 189.617 262.878 188.25 262.143C186.904 261.409 185.833 260.409 185.037 259.144C184.262 257.859 183.874 256.4 183.874 254.768C183.874 253.116 184.262 251.657 185.037 250.392C185.833 249.107 186.904 248.107 188.25 247.393C189.617 246.659 191.178 246.292 192.932 246.292C194.666 246.292 196.217 246.659 197.584 247.393C198.951 248.107 200.022 249.097 200.797 250.362C201.572 251.626 201.96 253.095 201.96 254.768C201.96 256.4 201.572 257.859 200.797 259.144C200.022 260.409 198.951 261.409 197.584 262.143C196.217 262.878 194.666 263.245 192.932 263.245ZM192.932 259.328C193.728 259.328 194.442 259.144 195.074 258.777C195.707 258.41 196.207 257.89 196.574 257.216C196.941 256.523 197.125 255.707 197.125 254.768C197.125 253.809 196.941 252.993 196.574 252.32C196.207 251.647 195.707 251.127 195.074 250.759C194.442 250.392 193.728 250.209 192.932 250.209C192.137 250.209 191.423 250.392 190.79 250.759C190.158 251.127 189.648 251.647 189.26 252.32C188.893 252.993 188.709 253.809 188.709 254.768C188.709 255.707 188.893 256.523 189.26 257.216C189.648 257.89 190.158 258.41 190.79 258.777C191.423 259.144 192.137 259.328 192.932 259.328ZM210.514 263.306C209.249 263.306 207.984 263.173 206.719 262.908C205.475 262.643 204.322 262.245 203.261 261.715L204.547 258.379C205.383 258.787 206.291 259.103 207.27 259.328C208.27 259.532 209.28 259.634 210.3 259.634C211.034 259.634 211.667 259.562 212.197 259.42C212.748 259.256 213.166 259.032 213.452 258.746C213.737 258.461 213.88 258.114 213.88 257.706C213.88 257.175 213.656 256.778 213.207 256.512C212.758 256.227 212.105 256.084 211.248 256.084H207.882V253.116H210.851C211.401 253.116 211.871 253.054 212.258 252.932C212.646 252.81 212.931 252.636 213.115 252.412C213.319 252.167 213.421 251.881 213.421 251.555C213.421 251.208 213.299 250.912 213.054 250.668C212.809 250.423 212.452 250.239 211.983 250.117C211.514 249.974 210.922 249.902 210.208 249.902C209.392 249.902 208.545 250.005 207.668 250.209C206.791 250.392 205.893 250.668 204.975 251.035L203.812 247.73C204.893 247.281 205.965 246.924 207.025 246.659C208.086 246.394 209.137 246.251 210.177 246.23C211.707 246.189 213.084 246.353 214.309 246.72C215.533 247.087 216.491 247.618 217.185 248.311C217.899 249.005 218.256 249.851 218.256 250.851C218.256 251.647 218.011 252.361 217.522 252.993C217.052 253.626 216.4 254.126 215.563 254.493C214.727 254.84 213.788 255.013 212.748 255.013L212.87 254.064C214.686 254.064 216.114 254.432 217.155 255.166C218.195 255.88 218.715 256.859 218.715 258.104C218.715 259.165 218.348 260.093 217.614 260.888C216.899 261.664 215.92 262.266 214.676 262.694C213.452 263.102 212.064 263.306 210.514 263.306ZM228.499 255.87V252.901H259.101V255.87H228.499ZM39.2951 300V283.536H44.2832L50.4953 294.798H48.5062L55.1468 283.536H59.6146L59.6758 300H55.361V288.433L56.0954 288.922L50.4341 298.409H48.4144L42.7225 288.586L43.61 288.371V300H39.2951ZM81.2019 300V283.536H85.9452V300H81.2019ZM72.9089 288.8C75.0714 288.82 76.6933 289.31 77.7745 290.269C78.8762 291.207 79.427 292.543 79.427 294.277C79.427 296.093 78.8048 297.511 77.5603 298.531C76.3159 299.531 74.5512 300.031 72.2662 300.031L64.2486 300V283.536H68.9919V288.8H72.9089ZM71.8378 296.634C72.7559 296.654 73.4597 296.46 73.9493 296.052C74.439 295.644 74.6838 295.032 74.6838 294.216C74.6838 293.4 74.439 292.819 73.9493 292.472C73.4597 292.105 72.7559 291.911 71.8378 291.891L68.9919 291.86V296.634H71.8378ZM99.2134 300V283.536H107.629C109.689 283.536 111.301 283.914 112.464 284.669C113.627 285.403 114.208 286.443 114.208 287.79C114.208 289.136 113.657 290.197 112.556 290.973C111.474 291.727 110.036 292.105 108.241 292.105L108.73 291.003C110.73 291.003 112.219 291.37 113.198 292.105C114.198 292.839 114.698 293.91 114.698 295.318C114.698 296.766 114.147 297.909 113.045 298.745C111.944 299.582 110.261 300 107.996 300H99.2134ZM103.589 296.756H107.598C108.475 296.756 109.128 296.613 109.557 296.328C110.006 296.022 110.23 295.563 110.23 294.951C110.23 294.318 110.026 293.859 109.618 293.574C109.21 293.268 108.567 293.115 107.69 293.115H103.589V296.756ZM103.589 290.299H107.2C108.037 290.299 108.659 290.146 109.067 289.84C109.496 289.534 109.71 289.096 109.71 288.524C109.71 287.933 109.496 287.494 109.067 287.209C108.659 286.923 108.037 286.78 107.2 286.78H103.589V290.299ZM126.084 300.245C124.309 300.245 122.728 299.888 121.341 299.174C119.953 298.439 118.862 297.429 118.066 296.144C117.291 294.859 116.903 293.4 116.903 291.768C116.903 290.116 117.291 288.657 118.066 287.392C118.862 286.107 119.953 285.107 121.341 284.393C122.728 283.659 124.309 283.292 126.084 283.292C127.818 283.292 129.328 283.659 130.613 284.393C131.898 285.107 132.847 286.137 133.459 287.484L129.756 289.473C129.328 288.698 128.787 288.127 128.134 287.759C127.502 287.392 126.808 287.209 126.053 287.209C125.237 287.209 124.503 287.392 123.85 287.759C123.197 288.127 122.677 288.647 122.289 289.32C121.922 289.993 121.738 290.809 121.738 291.768C121.738 292.727 121.922 293.543 122.289 294.216C122.677 294.89 123.197 295.41 123.85 295.777C124.503 296.144 125.237 296.328 126.053 296.328C126.808 296.328 127.502 296.154 128.134 295.808C128.787 295.44 129.328 294.859 129.756 294.063L133.459 296.083C132.847 297.409 131.898 298.439 130.613 299.174C129.328 299.888 127.818 300.245 126.084 300.245ZM144.199 300.245C142.322 300.245 140.669 299.878 139.241 299.143C137.834 298.409 136.742 297.409 135.967 296.144C135.192 294.859 134.804 293.4 134.804 291.768C134.804 290.116 135.181 288.657 135.936 287.392C136.712 286.107 137.762 285.107 139.088 284.393C140.414 283.659 141.914 283.292 143.587 283.292C145.198 283.292 146.647 283.638 147.932 284.332C149.238 285.005 150.268 285.984 151.023 287.27C151.778 288.535 152.155 290.054 152.155 291.829C152.155 292.013 152.145 292.227 152.125 292.472C152.104 292.696 152.084 292.911 152.063 293.115H138.69V290.33H149.554L147.718 291.156C147.718 290.299 147.545 289.555 147.198 288.922C146.851 288.29 146.371 287.8 145.759 287.453C145.147 287.086 144.433 286.902 143.617 286.902C142.801 286.902 142.077 287.086 141.445 287.453C140.833 287.8 140.353 288.3 140.006 288.953C139.66 289.585 139.486 290.34 139.486 291.217V291.952C139.486 292.849 139.68 293.645 140.068 294.339C140.476 295.012 141.037 295.532 141.751 295.899C142.485 296.246 143.342 296.42 144.321 296.42C145.198 296.42 145.963 296.287 146.616 296.022C147.29 295.757 147.902 295.359 148.452 294.828L150.992 297.582C150.237 298.439 149.289 299.102 148.146 299.572C147.004 300.02 145.688 300.245 144.199 300.245ZM155.814 300V283.536H169.004V287.453H159.487L160.558 286.413V300H155.814ZM181.661 297.858V287.453H176.275L176.183 289.565C176.142 290.442 176.091 291.279 176.03 292.074C175.969 292.87 175.847 293.594 175.663 294.247C175.5 294.879 175.255 295.42 174.929 295.869C174.602 296.297 174.163 296.593 173.613 296.756L168.9 296.083C169.492 296.083 169.971 295.91 170.338 295.563C170.706 295.196 170.991 294.696 171.195 294.063C171.399 293.41 171.552 292.676 171.654 291.86C171.756 291.024 171.828 290.146 171.868 289.228L172.083 283.536H186.435V297.858H181.661ZM168.349 303.55V296.083H188.791V303.55H184.354V300H172.786V303.55H168.349ZM201.649 300V296.787L201.343 296.083V290.33C201.343 289.31 201.027 288.514 200.394 287.943C199.782 287.372 198.834 287.086 197.548 287.086C196.671 287.086 195.804 287.229 194.947 287.515C194.111 287.78 193.397 288.147 192.805 288.616L191.091 285.281C191.989 284.648 193.07 284.159 194.335 283.812C195.6 283.465 196.885 283.292 198.191 283.292C200.7 283.292 202.649 283.883 204.036 285.066C205.423 286.25 206.117 288.096 206.117 290.605V300H201.649ZM196.63 300.245C195.345 300.245 194.243 300.031 193.325 299.602C192.407 299.153 191.704 298.552 191.214 297.797C190.724 297.042 190.479 296.195 190.479 295.257C190.479 294.277 190.714 293.421 191.183 292.686C191.673 291.952 192.438 291.381 193.478 290.973C194.519 290.544 195.876 290.33 197.548 290.33H201.924V293.115H198.069C196.947 293.115 196.171 293.298 195.743 293.665C195.335 294.033 195.131 294.492 195.131 295.043C195.131 295.655 195.365 296.144 195.835 296.511C196.324 296.858 196.987 297.032 197.824 297.032C198.619 297.032 199.334 296.848 199.966 296.481C200.598 296.093 201.057 295.532 201.343 294.798L202.077 297.001C201.731 298.062 201.098 298.868 200.18 299.419C199.262 299.969 198.079 300.245 196.63 300.245ZM48.9958 337.245C47.6086 337.245 46.3947 336.939 45.3542 336.327C44.3138 335.715 43.4977 334.786 42.9061 333.542C42.3349 332.277 42.0493 330.686 42.0493 328.768C42.0493 326.83 42.3247 325.239 42.8755 323.994C43.4263 322.75 44.222 321.822 45.2624 321.21C46.3029 320.598 47.5474 320.292 48.9958 320.292C50.5463 320.292 51.9336 320.649 53.1577 321.363C54.4021 322.056 55.3814 323.035 56.0954 324.3C56.8299 325.565 57.1971 327.054 57.1971 328.768C57.1971 330.502 56.8299 332.002 56.0954 333.267C55.3814 334.531 54.4021 335.511 53.1577 336.204C51.9336 336.898 50.5463 337.245 48.9958 337.245ZM39.2645 342.937V320.536H43.8242V323.902L43.7324 328.799L44.0384 333.664V342.937H39.2645ZM48.1696 333.328C48.9652 333.328 49.6691 333.144 50.2811 332.777C50.9135 332.41 51.4134 331.89 51.7806 331.216C52.1682 330.523 52.362 329.707 52.362 328.768C52.362 327.809 52.1682 326.993 51.7806 326.32C51.4134 325.647 50.9135 325.127 50.2811 324.759C49.6691 324.392 48.9652 324.209 48.1696 324.209C47.374 324.209 46.6599 324.392 46.0275 324.759C45.3951 325.127 44.8952 325.647 44.528 326.32C44.1608 326.993 43.9772 327.809 43.9772 328.768C43.9772 329.707 44.1608 330.523 44.528 331.216C44.8952 331.89 45.3951 332.41 46.0275 332.777C46.6599 333.144 47.374 333.328 48.1696 333.328ZM70.4089 337V331.522L71.0821 332.287H66.5225C64.1559 332.287 62.2994 331.798 60.953 330.818C59.6065 329.839 58.9332 328.432 58.9332 326.595C58.9332 324.637 59.6371 323.137 61.0448 322.097C62.4728 321.057 64.3905 320.536 66.7979 320.536H74.6625V337H70.4089ZM58.6884 337L63.0645 330.727H67.9301L63.7683 337H58.6884ZM70.4089 330.053V323.199L71.0821 324.423H66.8897C65.9104 324.423 65.1454 324.606 64.5946 324.974C64.0641 325.341 63.7989 325.932 63.7989 326.748C63.7989 328.319 64.8088 329.105 66.8285 329.105H71.0821L70.4089 330.053ZM90.5732 334.858V324.453H85.1873L85.0955 326.565C85.0547 327.442 85.0037 328.279 84.9425 329.074C84.8813 329.87 84.7589 330.594 84.5753 331.247C84.4121 331.879 84.1673 332.42 83.8408 332.869C83.5144 333.297 83.0758 333.593 82.525 333.756L77.8123 333.083C78.4039 333.083 78.8834 332.91 79.2506 332.563C79.6178 332.196 79.9034 331.696 80.1074 331.063C80.3114 330.41 80.4645 329.676 80.5665 328.86C80.6685 328.024 80.7399 327.146 80.7807 326.228L80.9949 320.536H95.3471V334.858H90.5732ZM77.2615 340.55V333.083H97.7034V340.55H93.2661V337H81.6987V340.55H77.2615ZM108.419 337.245C106.665 337.245 105.104 336.878 103.737 336.143C102.391 335.409 101.32 334.409 100.524 333.144C99.7487 331.859 99.3611 330.4 99.3611 328.768C99.3611 327.116 99.7487 325.657 100.524 324.392C101.32 323.107 102.391 322.107 103.737 321.393C105.104 320.659 106.665 320.292 108.419 320.292C110.153 320.292 111.704 320.659 113.071 321.393C114.438 322.107 115.509 323.097 116.284 324.362C117.059 325.626 117.447 327.095 117.447 328.768C117.447 330.4 117.059 331.859 116.284 333.144C115.509 334.409 114.438 335.409 113.071 336.143C111.704 336.878 110.153 337.245 108.419 337.245ZM108.419 333.328C109.215 333.328 109.929 333.144 110.561 332.777C111.194 332.41 111.694 331.89 112.061 331.216C112.428 330.523 112.612 329.707 112.612 328.768C112.612 327.809 112.428 326.993 112.061 326.32C111.694 325.647 111.194 325.127 110.561 324.759C109.929 324.392 109.215 324.209 108.419 324.209C107.624 324.209 106.91 324.392 106.277 324.759C105.645 325.127 105.135 325.647 104.747 326.32C104.38 326.993 104.196 327.809 104.196 328.768C104.196 329.707 104.38 330.523 104.747 331.216C105.135 331.89 105.645 332.41 106.277 332.777C106.91 333.144 107.624 333.328 108.419 333.328ZM120.73 337V320.536H125.718L131.93 331.798H129.941L136.582 320.536H141.05L141.111 337H136.796V325.433L137.53 325.922L131.869 335.409H129.849L124.158 325.586L125.045 325.371V337H120.73ZM145.928 329.564L144.98 315.579H150.672L149.723 329.564H145.928ZM147.826 337.245C146.969 337.245 146.265 336.969 145.714 336.419C145.163 335.868 144.888 335.215 144.888 334.46C144.888 333.685 145.163 333.042 145.714 332.532C146.265 332.002 146.969 331.737 147.826 331.737C148.703 331.737 149.407 332.002 149.937 332.532C150.488 333.042 150.764 333.685 150.764 334.46C150.764 335.215 150.488 335.868 149.937 336.419C149.407 336.969 148.703 337.245 147.826 337.245Z" fill="white"/>
<path d="M156.257 35C141.071 35 126.508 41.0324 115.771 51.7706C105.032 62.5074 99 77.0707 99 92.2569C99 107.443 105.032 122.007 115.771 132.743C126.509 143.481 141.072 149.514 156.257 149.514C171.442 149.514 186.006 143.481 196.743 132.743C207.481 122.006 213.514 107.442 213.514 92.2569C213.514 77.0722 207.481 62.5081 196.743 51.7706C186.006 41.0324 171.443 35 156.257 35ZM156.257 122.392C148.264 122.392 140.599 119.218 134.948 113.565C129.295 107.914 126.121 100.249 126.121 92.2561C126.121 84.2649 129.295 76.5998 134.948 70.9488C140.599 65.2962 148.264 62.1215 156.257 62.1215C164.248 62.1215 171.913 65.2962 177.566 70.9488C183.217 76.5998 186.391 84.2649 186.391 92.2561C186.391 100.249 183.217 107.914 177.566 113.565C171.913 119.218 164.248 122.392 156.257 122.392Z" fill="white"/>
<path d="M139.019 153.128L156.257 185.675L173.494 153.128C162.226 156.343 150.286 156.343 139.018 153.128H139.019Z" fill="white"/>
<defs>
<linearGradient id="paint0_linear_12_151" x1="157.623" y1="0" x2="157.623" y2="381" gradientUnits="userSpaceOnUse">
<stop stop-color="#35CD6D"/>
<stop offset="1" stop-color="#196C46"/>
</linearGradient>
</defs>
</svg>
