<svg width="316" height="381" viewBox="0 0 316 381" fill="none" xmlns="http://www.w3.org/2000/svg">
<rect x="0.753418" width="315.247" height="381" rx="39" fill="url(#paint0_linear_12_156)"/>
<path d="M91.3429 221V141.14L100.078 149.875H73.8735V133.653H111.557V221H91.3429ZM151.188 206.151V148.502H167.285V206.151H151.188ZM129.601 184.938V169.715H188.997V184.938H129.601ZM212.225 221V141.14L220.959 149.875H194.755V133.653H232.439V221H212.225Z" fill="white"/>
<path d="M71.267 107L66.7185 99.9686L69.4517 98.3203L75.1061 107H71.267ZM61.7735 107V92.3947H65.1327V107H61.7735ZM64.1521 101.116V98.2994H69.2431V101.116H64.1521ZM69.7647 100.073L66.6559 99.6973L71.3922 92.3947H74.96L69.7647 100.073ZM83.2595 107V104.809L83.0508 104.329V100.407C83.0508 99.7112 82.8352 99.1688 82.404 98.7793C81.9867 98.3898 81.3399 98.1951 80.4636 98.1951C79.8655 98.1951 79.2743 98.2924 78.6901 98.4872C78.1198 98.668 77.6329 98.9184 77.2296 99.2383L76.0611 96.9641C76.6732 96.5328 77.4104 96.199 78.2728 95.9625C79.1352 95.7261 80.0115 95.6078 80.9018 95.6078C82.6127 95.6078 83.9411 96.0112 84.8869 96.818C85.8328 97.6248 86.3057 98.8836 86.3057 100.595V107H83.2595ZM79.8377 107.167C78.9613 107.167 78.2102 107.021 77.5843 106.729C76.9583 106.423 76.4784 106.012 76.1446 105.498C75.8108 104.983 75.6438 104.406 75.6438 103.766C75.6438 103.098 75.8038 102.514 76.1237 102.013C76.4576 101.513 76.9792 101.123 77.6886 100.845C78.398 100.553 79.323 100.407 80.4636 100.407H83.4473V102.305H80.8183C80.0533 102.305 79.5247 102.431 79.2326 102.681C78.9544 102.931 78.8153 103.244 78.8153 103.62C78.8153 104.037 78.9752 104.371 79.2952 104.621C79.629 104.858 80.0811 104.976 80.6514 104.976C81.1939 104.976 81.6807 104.851 82.1119 104.601C82.5431 104.336 82.8561 103.954 83.0508 103.453L83.5516 104.955C83.3151 105.679 82.8839 106.228 82.258 106.604C81.632 106.979 80.8253 107.167 79.8377 107.167ZM102.633 107L99.6491 101.679L102.278 100.115L106.493 107H102.633ZM97.7295 102.744V100.135H101.631V102.744H97.7295ZM102.612 101.763L99.5447 101.429L102.779 95.7748H106.221L102.612 101.763ZM91.5327 107H87.6936L91.8874 100.115L94.5163 101.679L91.5327 107ZM98.6893 107H95.4761V95.7748H98.6893V107ZM96.4359 102.744H92.5551V100.135H96.4359V102.744ZM91.5535 101.763L87.9439 95.7748H91.3866L94.5998 101.429L91.5535 101.763ZM115.905 105.539V98.4454H112.232L112.17 99.8851C112.142 100.483 112.107 101.054 112.065 101.596C112.024 102.139 111.94 102.632 111.815 103.077C111.704 103.509 111.537 103.877 111.314 104.183C111.092 104.475 110.793 104.677 110.417 104.788L107.204 104.329C107.607 104.329 107.934 104.211 108.185 103.975C108.435 103.724 108.63 103.383 108.769 102.952C108.908 102.507 109.012 102.006 109.082 101.45C109.151 100.88 109.2 100.282 109.228 99.6556L109.374 95.7748H119.159V105.539H115.905ZM106.828 109.42V104.329H120.766V109.42H117.741V107H109.854V109.42H106.828ZM134.373 107V95.7748H137.607V107H134.373ZM128.719 99.3635C130.193 99.3774 131.299 99.7112 132.037 100.365C132.788 101.005 133.163 101.916 133.163 103.098C133.163 104.336 132.739 105.303 131.89 105.998C131.042 106.68 129.839 107.021 128.281 107.021L122.814 107V95.7748H126.048V99.3635H128.719ZM127.989 104.705C128.615 104.719 129.095 104.587 129.428 104.308C129.762 104.03 129.929 103.613 129.929 103.057C129.929 102.5 129.762 102.104 129.428 101.867C129.095 101.617 128.615 101.485 127.989 101.471L126.048 101.45V104.705H127.989ZM140.745 107V95.7748H143.979V102.451L149.446 95.7748H152.429V107H149.195V100.323L143.749 107H140.745ZM146.378 94.5646C145.154 94.5646 144.236 94.3003 143.624 93.7717C143.012 93.2293 142.699 92.4155 142.685 91.3306H144.814C144.828 91.8035 144.96 92.1791 145.21 92.4573C145.46 92.7355 145.843 92.8746 146.358 92.8746C146.858 92.8746 147.241 92.7355 147.505 92.4573C147.783 92.1791 147.922 91.8035 147.922 91.3306H150.092C150.092 92.4155 149.779 93.2293 149.153 93.7717C148.528 94.3003 147.603 94.5646 146.378 94.5646ZM161.467 107V95.7748H167.205C168.61 95.7748 169.709 96.0321 170.502 96.5468C171.294 97.0475 171.691 97.7569 171.691 98.675C171.691 99.593 171.315 100.316 170.564 100.845C169.827 101.36 168.846 101.617 167.622 101.617L167.956 100.866C169.319 100.866 170.335 101.116 171.002 101.617C171.684 102.118 172.025 102.848 172.025 103.808C172.025 104.795 171.649 105.574 170.898 106.145C170.147 106.715 168.999 107 167.455 107H161.467ZM164.451 104.788H167.184C167.782 104.788 168.227 104.691 168.519 104.496C168.825 104.288 168.978 103.975 168.978 103.557C168.978 103.126 168.839 102.813 168.561 102.618C168.283 102.41 167.845 102.305 167.247 102.305H164.451V104.788ZM164.451 100.386H166.913C167.483 100.386 167.907 100.282 168.186 100.073C168.478 99.8643 168.624 99.5652 168.624 99.1757C168.624 98.7723 168.478 98.4733 168.186 98.2785C167.907 98.0838 167.483 97.9864 166.913 97.9864H164.451V100.386ZM176.846 107V97.6943L177.576 98.4454H173.049V95.7748H183.877V98.4454H179.35L180.08 97.6943V107H176.846ZM190.402 107.167C189.205 107.167 188.141 106.917 187.209 106.416C186.291 105.915 185.561 105.233 185.019 104.371C184.49 103.495 184.226 102.5 184.226 101.387C184.226 100.261 184.49 99.2661 185.019 98.4037C185.561 97.5274 186.291 96.8458 187.209 96.359C188.141 95.8582 189.205 95.6078 190.402 95.6078C191.584 95.6078 192.641 95.8582 193.573 96.359C194.505 96.8458 195.235 97.5204 195.764 98.3829C196.292 99.2453 196.557 100.247 196.557 101.387C196.557 102.5 196.292 103.495 195.764 104.371C195.235 105.233 194.505 105.915 193.573 106.416C192.641 106.917 191.584 107.167 190.402 107.167ZM190.402 104.496C190.944 104.496 191.431 104.371 191.862 104.121C192.293 103.87 192.634 103.516 192.885 103.057C193.135 102.584 193.26 102.027 193.26 101.387C193.26 100.734 193.135 100.177 192.885 99.7182C192.634 99.2592 192.293 98.9045 191.862 98.6541C191.431 98.4037 190.944 98.2785 190.402 98.2785C189.859 98.2785 189.372 98.4037 188.941 98.6541C188.51 98.9045 188.162 99.2592 187.898 99.7182C187.647 100.177 187.522 100.734 187.522 101.387C187.522 102.027 187.647 102.584 187.898 103.057C188.162 103.516 188.51 103.87 188.941 104.121C189.372 104.371 189.859 104.496 190.402 104.496ZM205.41 107.167C204.464 107.167 203.636 106.958 202.927 106.541C202.217 106.124 201.661 105.491 201.257 104.642C200.868 103.78 200.673 102.695 200.673 101.387C200.673 100.066 200.861 98.981 201.237 98.1325C201.612 97.284 202.155 96.6511 202.864 96.2338C203.573 95.8165 204.422 95.6078 205.41 95.6078C206.467 95.6078 207.413 95.8513 208.247 96.3381C209.096 96.811 209.763 97.4787 210.25 98.3411C210.751 99.2035 211.001 100.219 211.001 101.387C211.001 102.57 210.751 103.592 210.25 104.454C209.763 105.317 209.096 105.985 208.247 106.458C207.413 106.93 206.467 107.167 205.41 107.167ZM198.775 111.048V95.7748H201.883V98.0699L201.821 101.408L202.029 104.726V111.048H198.775ZM204.846 104.496C205.389 104.496 205.869 104.371 206.286 104.121C206.717 103.87 207.058 103.516 207.308 103.057C207.573 102.584 207.705 102.027 207.705 101.387C207.705 100.734 207.573 100.177 207.308 99.7182C207.058 99.2592 206.717 98.9045 206.286 98.6541C205.869 98.4037 205.389 98.2785 204.846 98.2785C204.304 98.2785 203.817 98.4037 203.386 98.6541C202.954 98.9045 202.614 99.2592 202.363 99.7182C202.113 100.177 201.988 100.734 201.988 101.387C201.988 102.027 202.113 102.584 202.363 103.057C202.614 103.516 202.954 103.87 203.386 104.121C203.817 104.371 204.304 104.496 204.846 104.496ZM213.283 107V95.7748H216.517V100.156H221.399V95.7748H224.654V107H221.399V102.806H216.517V107H213.283ZM227.77 107V95.7748H231.004V102.451L236.47 95.7748H239.454V107H236.22V100.323L230.774 107H227.77ZM250.532 107L246.777 101.679L249.427 100.115L254.371 107H250.532ZM242.583 107V95.7748H245.838V107H242.583ZM244.878 102.744V100.135H248.801V102.744H244.878ZM249.74 101.763L246.693 101.429L250.637 95.7748H254.1L249.74 101.763Z" fill="white"/>
<path d="M63.1738 260V247.322H66.8263V252.271H72.3404V247.322H76.0165V260H72.3404V255.264H66.8263V260H63.1738ZM87.1232 260V257.526L86.8876 256.984V252.554C86.8876 251.768 86.6441 251.155 86.1571 250.716C85.6858 250.276 84.9553 250.056 83.9656 250.056C83.2901 250.056 82.6224 250.166 81.9626 250.386C81.3185 250.59 80.7687 250.873 80.3131 251.234L78.9935 248.666C79.6847 248.179 80.5173 247.801 81.4913 247.534C82.4653 247.267 83.455 247.134 84.4605 247.134C86.3927 247.134 87.893 247.589 88.9613 248.501C90.0295 249.412 90.5636 250.833 90.5636 252.766V260H87.1232ZM83.2587 260.189C82.269 260.189 81.4206 260.024 80.7137 259.694C80.0068 259.348 79.4648 258.885 79.0878 258.303C78.7107 257.722 78.5222 257.07 78.5222 256.348C78.5222 255.593 78.7029 254.934 79.0642 254.368C79.4412 253.803 80.0303 253.363 80.8315 253.048C81.6327 252.719 82.6774 252.554 83.9656 252.554H87.3353V254.698H84.3662C83.5022 254.698 82.9052 254.839 82.5753 255.122C82.2611 255.405 82.104 255.758 82.104 256.183C82.104 256.654 82.2847 257.031 82.646 257.314C83.023 257.581 83.5336 257.714 84.1777 257.714C84.7904 257.714 85.3402 257.573 85.8272 257.29C86.3142 256.992 86.6677 256.56 86.8876 255.994L87.4531 257.691C87.1861 258.508 86.6991 259.128 85.9921 259.552C85.2852 259.976 84.3741 260.189 83.2587 260.189ZM108.961 260.283C108.929 260.283 108.843 260.283 108.702 260.283C108.56 260.283 108.427 260.283 108.301 260.283C108.175 260.283 108.089 260.283 108.042 260.283C105.293 260.236 103.164 259.647 101.656 258.515C100.148 257.384 99.3937 255.751 99.3937 253.614C99.3937 251.509 100.14 249.907 101.632 248.807C103.14 247.692 105.3 247.126 108.113 247.11C108.144 247.11 108.222 247.11 108.348 247.11C108.49 247.11 108.623 247.11 108.749 247.11C108.874 247.11 108.953 247.11 108.984 247.11C111.828 247.11 114.027 247.66 115.582 248.76C117.153 249.859 117.939 251.478 117.939 253.614C117.939 255.782 117.153 257.439 115.582 258.586C114.027 259.717 111.82 260.283 108.961 260.283ZM108.843 257.455C110.147 257.455 111.207 257.322 112.024 257.054C112.841 256.772 113.438 256.348 113.815 255.782C114.208 255.201 114.404 254.478 114.404 253.614C114.404 252.781 114.216 252.098 113.839 251.564C113.462 251.014 112.857 250.606 112.024 250.339C111.207 250.072 110.147 249.938 108.843 249.938C108.796 249.938 108.702 249.938 108.56 249.938C108.419 249.938 108.325 249.938 108.277 249.938C107.021 249.938 106 250.079 105.214 250.362C104.429 250.645 103.855 251.053 103.494 251.587C103.133 252.122 102.952 252.797 102.952 253.614C102.952 254.462 103.133 255.169 103.494 255.735C103.855 256.3 104.429 256.725 105.214 257.007C106 257.29 107.021 257.439 108.277 257.455C108.325 257.455 108.419 257.455 108.56 257.455C108.702 257.455 108.796 257.455 108.843 257.455ZM106.981 264.572V242.515H110.351V264.572H106.981ZM120.428 260V247.322H124.081V254.863L130.254 247.322H133.624V260H129.972V252.459L123.821 260H120.428ZM144.628 260.189C143.56 260.189 142.625 259.953 141.824 259.482C141.022 259.01 140.394 258.296 139.939 257.337C139.499 256.363 139.279 255.138 139.279 253.661C139.279 252.169 139.491 250.943 139.915 249.985C140.339 249.027 140.952 248.312 141.753 247.841C142.554 247.369 143.512 247.134 144.628 247.134C145.822 247.134 146.89 247.409 147.833 247.959C148.791 248.493 149.545 249.247 150.095 250.221C150.66 251.195 150.943 252.342 150.943 253.661C150.943 254.996 150.66 256.151 150.095 257.125C149.545 258.099 148.791 258.853 147.833 259.387C146.89 259.921 145.822 260.189 144.628 260.189ZM137.134 264.572V247.322H140.645V249.914L140.575 253.685L140.81 257.431V264.572H137.134ZM143.992 257.172C144.604 257.172 145.146 257.031 145.618 256.748C146.105 256.465 146.489 256.065 146.772 255.546C147.071 255.012 147.22 254.384 147.22 253.661C147.22 252.923 147.071 252.294 146.772 251.776C146.489 251.258 146.105 250.857 145.618 250.574C145.146 250.291 144.604 250.15 143.992 250.15C143.379 250.15 142.829 250.291 142.342 250.574C141.855 250.857 141.47 251.258 141.187 251.776C140.905 252.294 140.763 252.923 140.763 253.661C140.763 254.384 140.905 255.012 141.187 255.546C141.47 256.065 141.855 256.465 142.342 256.748C142.829 257.031 143.379 257.172 143.992 257.172ZM153.52 260V247.322H157.361L162.144 255.994H160.612L165.726 247.322H169.166L169.213 260H165.891V251.093L166.456 251.47L162.097 258.775H160.542L156.159 251.21L156.842 251.046V260H153.52ZM178.932 260.189C177.487 260.189 176.214 259.906 175.115 259.34C174.031 258.775 173.19 258.005 172.593 257.031C171.996 256.041 171.698 254.918 171.698 253.661C171.698 252.389 171.988 251.265 172.57 250.291C173.167 249.302 173.976 248.532 174.997 247.982C176.018 247.417 177.173 247.134 178.461 247.134C179.702 247.134 180.817 247.401 181.807 247.935C182.812 248.453 183.606 249.207 184.187 250.197C184.768 251.171 185.059 252.342 185.059 253.708C185.059 253.85 185.051 254.015 185.035 254.203C185.02 254.376 185.004 254.541 184.988 254.698H174.691V252.554H183.056L181.642 253.19C181.642 252.53 181.508 251.957 181.241 251.47C180.974 250.983 180.605 250.606 180.134 250.339C179.663 250.056 179.113 249.914 178.484 249.914C177.856 249.914 177.298 250.056 176.811 250.339C176.34 250.606 175.971 250.991 175.704 251.493C175.437 251.98 175.303 252.561 175.303 253.237V253.803C175.303 254.494 175.452 255.106 175.751 255.641C176.065 256.159 176.497 256.56 177.047 256.842C177.613 257.109 178.272 257.243 179.026 257.243C179.702 257.243 180.291 257.141 180.794 256.937C181.312 256.732 181.783 256.426 182.208 256.018L184.163 258.138C183.582 258.798 182.852 259.309 181.972 259.67C181.092 260.016 180.079 260.189 178.932 260.189ZM187.877 260V247.322H191.529V252.271H197.043V247.322H200.719V260H197.043V255.264H191.529V260H187.877ZM204.238 260V247.322H207.891V252.271H213.405V247.322H217.081V260H213.405V255.264H207.891V260H204.238ZM222.32 264.76C221.66 264.76 221.008 264.658 220.364 264.454C219.72 264.249 219.194 263.967 218.785 263.605L220.129 260.99C220.411 261.241 220.733 261.437 221.095 261.579C221.472 261.72 221.841 261.791 222.202 261.791C222.721 261.791 223.129 261.665 223.428 261.414C223.742 261.178 224.025 260.778 224.276 260.212L224.936 258.657L225.219 258.256L229.767 247.322H233.301L227.575 260.778C227.167 261.799 226.695 262.6 226.161 263.181C225.643 263.762 225.061 264.171 224.417 264.407C223.789 264.642 223.09 264.76 222.32 264.76ZM224.488 260.495L218.833 247.322H222.626L227.009 257.926L224.488 260.495ZM235.075 260V247.322H238.727V251.988H242.45V255.169H238.727V260H235.075ZM247.069 260.189C245.765 260.189 244.602 259.906 243.581 259.34C242.56 258.775 241.759 258.005 241.178 257.031C240.597 256.041 240.306 254.918 240.306 253.661C240.306 252.389 240.597 251.265 241.178 250.291C241.759 249.302 242.56 248.532 243.581 247.982C244.602 247.417 245.765 247.134 247.069 247.134C248.373 247.134 249.527 247.417 250.533 247.982C251.554 248.532 252.355 249.302 252.936 250.291C253.518 251.265 253.808 252.389 253.808 253.661C253.808 254.918 253.518 256.041 252.936 257.031C252.355 258.021 251.554 258.798 250.533 259.364C249.527 259.914 248.373 260.189 247.069 260.189ZM247.069 257.172C247.666 257.172 248.192 257.031 248.648 256.748C249.119 256.465 249.488 256.065 249.755 255.546C250.038 255.012 250.179 254.384 250.179 253.661C250.179 252.923 250.038 252.294 249.755 251.776C249.488 251.258 249.119 250.857 248.648 250.574C248.192 250.291 247.666 250.15 247.069 250.15C246.488 250.15 245.954 250.291 245.467 250.574C244.995 250.857 244.618 251.258 244.335 251.776C244.068 252.294 243.935 252.923 243.935 253.661C243.935 254.384 244.068 255.012 244.335 255.546C244.618 256.065 244.995 256.465 245.467 256.748C245.954 257.031 246.488 257.172 247.069 257.172ZM117.605 285.984L116.803 286.832V276.322H120.48V286.832L119.631 285.984H125.475L124.65 286.832V276.322H128.303V289H108.957V276.322H112.609V286.832L111.784 285.984H117.605ZM139.418 289V286.526L139.183 285.984V281.554C139.183 280.768 138.939 280.155 138.452 279.716C137.981 279.276 137.25 279.056 136.261 279.056C135.585 279.056 134.918 279.166 134.258 279.386C133.614 279.59 133.064 279.873 132.608 280.234L131.289 277.666C131.98 277.179 132.812 276.801 133.786 276.534C134.76 276.267 135.75 276.134 136.756 276.134C138.688 276.134 140.188 276.589 141.256 277.501C142.325 278.412 142.859 279.833 142.859 281.766V289H139.418ZM135.554 289.189C134.564 289.189 133.716 289.024 133.009 288.694C132.302 288.348 131.76 287.885 131.383 287.303C131.006 286.722 130.817 286.07 130.817 285.348C130.817 284.593 130.998 283.934 131.359 283.368C131.736 282.803 132.325 282.363 133.127 282.048C133.928 281.719 134.973 281.554 136.261 281.554H139.63V283.698H136.661C135.797 283.698 135.2 283.839 134.87 284.122C134.556 284.405 134.399 284.758 134.399 285.183C134.399 285.654 134.58 286.031 134.941 286.314C135.318 286.581 135.829 286.714 136.473 286.714C137.085 286.714 137.635 286.573 138.122 286.29C138.609 285.992 138.963 285.56 139.183 284.994L139.748 286.691C139.481 287.508 138.994 288.128 138.287 288.552C137.58 288.976 136.669 289.189 135.554 289.189ZM147.772 293.76C147.112 293.76 146.461 293.658 145.816 293.454C145.172 293.249 144.646 292.967 144.238 292.605L145.581 289.99C145.864 290.241 146.186 290.437 146.547 290.579C146.924 290.72 147.293 290.791 147.654 290.791C148.173 290.791 148.581 290.665 148.88 290.414C149.194 290.178 149.477 289.778 149.728 289.212L150.388 287.657L150.671 287.256L155.219 276.322H158.753L153.027 289.778C152.619 290.799 152.147 291.6 151.613 292.181C151.095 292.762 150.514 293.171 149.87 293.407C149.241 293.642 148.542 293.76 147.772 293.76ZM149.94 289.495L144.285 276.322H148.079L152.462 286.926L149.94 289.495ZM167.997 289.189C166.928 289.189 165.994 288.953 165.192 288.482C164.391 288.01 163.763 287.296 163.307 286.337C162.867 285.363 162.648 284.138 162.648 282.661C162.648 281.169 162.86 279.943 163.284 278.985C163.708 278.027 164.321 277.312 165.122 276.841C165.923 276.369 166.881 276.134 167.997 276.134C169.191 276.134 170.259 276.409 171.201 276.959C172.16 277.493 172.914 278.247 173.464 279.221C174.029 280.195 174.312 281.342 174.312 282.661C174.312 283.996 174.029 285.151 173.464 286.125C172.914 287.099 172.16 287.853 171.201 288.387C170.259 288.921 169.191 289.189 167.997 289.189ZM160.503 293.572V276.322H164.014V278.914L163.944 282.685L164.179 286.431V293.572H160.503ZM167.36 286.172C167.973 286.172 168.515 286.031 168.986 285.748C169.473 285.465 169.858 285.065 170.141 284.546C170.44 284.012 170.589 283.384 170.589 282.661C170.589 281.923 170.44 281.294 170.141 280.776C169.858 280.258 169.473 279.857 168.986 279.574C168.515 279.291 167.973 279.15 167.36 279.15C166.748 279.15 166.198 279.291 165.711 279.574C165.224 279.857 164.839 280.258 164.556 280.776C164.273 281.294 164.132 281.923 164.132 282.661C164.132 283.384 164.273 284.012 164.556 284.546C164.839 285.065 165.224 285.465 165.711 285.748C166.198 286.031 166.748 286.172 167.36 286.172ZM176.888 289V276.322H180.729L185.513 284.994H183.981L189.095 276.322H192.535L192.582 289H189.26V280.093L189.825 280.47L185.466 287.775H183.911L179.528 280.21L180.211 280.046V289H176.888ZM197.824 293.76C197.164 293.76 196.512 293.658 195.868 293.454C195.224 293.249 194.698 292.967 194.289 292.605L195.632 289.99C195.915 290.241 196.237 290.437 196.598 290.579C196.975 290.72 197.345 290.791 197.706 290.791C198.224 290.791 198.633 290.665 198.931 290.414C199.245 290.178 199.528 289.778 199.78 289.212L200.439 287.657L200.722 287.256L205.27 276.322H208.805L203.079 289.778C202.67 290.799 202.199 291.6 201.665 292.181C201.146 292.762 200.565 293.171 199.921 293.407C199.293 293.642 198.593 293.76 197.824 293.76ZM199.992 289.495L194.336 276.322H198.13L202.513 286.926L199.992 289.495Z" fill="white"/>
<defs>
<linearGradient id="paint0_linear_12_156" x1="158.377" y1="0" x2="158.377" y2="381" gradientUnits="userSpaceOnUse">
<stop stop-color="#2D87E2"/>
<stop offset="1" stop-color="#293B7D"/>
</linearGradient>
</defs>
</svg>
